<?xml version="1.0" encoding="UTF-8"?>
<svg version="1.1" xmlns="http://www.w3.org/2000/svg" width="111" height="150">
<path d="M0 0 C2 0 2 0 3.375 1.36328125 C4.52212913 2.7392847 5.65492349 4.12729986 6.7772522 5.52360535 C8.90848355 8.06208407 8.90848355 8.06208407 11.54379272 9.89570618 C16.86900882 14.27604461 19.15232615 17.86969056 19.87823486 24.66195679 C20.29113456 31.95598527 20.12497688 39.24296929 19.9765625 46.54296875 C19.95230023 49.24006952 19.94317458 51.93716577 19.9336853 54.63435364 C19.90274545 60.98490685 19.82088574 67.33371485 19.72019041 73.68350345 C19.60796625 80.91916502 19.5533227 88.15491509 19.50323606 95.39123189 C19.3990328 110.26178954 19.22342706 125.13071929 19 140 C11.89048391 142.9491326 7.14806495 143 -1 143 C-0.67 95.81 -0.34 48.62 0 0 Z " fill="#235072" transform="translate(62,4)"/>
<path d="M0 0 C0.86802518 17.76075601 1.13585994 35.47397434 1.09765625 53.25390625 C1.0957848 55.86376417 1.09436435 58.47362244 1.09336853 61.08348083 C1.09030384 67.17420358 1.08215862 73.2649076 1.07201904 79.35562223 C1.06070355 86.30890865 1.05530924 93.26219613 1.05032361 100.21548951 C1.0399698 114.4770029 1.02246838 128.73850078 1 143 C-1.93261924 144.46630962 -4.09787579 143.73055537 -7.3125 143.25 C-8.44300781 143.09015625 -9.57351562 142.9303125 -10.73828125 142.765625 C-16.32142366 141.45509097 -16.32142366 141.45509097 -19 139 C-19.81285786 135.32546056 -19.72371634 131.66062581 -19.71044922 127.91015625 C-19.72563599 126.76671249 -19.74082275 125.62326874 -19.75646973 124.44517517 C-19.79899329 120.65065359 -19.80376757 116.85724536 -19.8046875 113.0625 C-19.81821212 110.42512549 -19.83263892 107.78775547 -19.84793091 105.15039062 C-19.87534896 99.61205697 -19.87888036 94.07403065 -19.87158203 88.53564453 C-19.86376476 82.15543535 -19.90753914 75.77703724 -19.97638309 69.39723492 C-20.04037429 63.24347439 -20.05388907 57.090566 -20.0485878 50.93649292 C-20.05263053 48.32748197 -20.07106262 45.71845078 -20.10439682 43.10964966 C-20.36773413 20.13575989 -20.36773413 20.13575989 -14.60986328 13.00268555 C-12.20632935 10.75419617 -12.20632935 10.75419617 -10 9 C-9.04807508 7.99920223 -8.10744244 6.98730458 -7.1875 5.95703125 C-6.465625 5.24933594 -5.74375 4.54164062 -5 3.8125 C-4.2575 3.07644531 -3.515 2.34039062 -2.75 1.58203125 C-1 0 -1 0 0 0 Z " fill="#1D4B6F" transform="translate(51,4)"/>
<path d="M0 0 C6.74647887 5.62206573 6.74647887 5.62206573 9.5 8.875 C10.28890625 9.79925781 10.28890625 9.79925781 11.09375 10.7421875 C11.7228125 11.48726562 12.351875 12.23234375 13 13 C13.48408829 13.40418655 13.96817657 13.80837311 14.4669342 14.22480774 C18.57740906 18.03579015 19.46764532 21.23108914 19.82397461 26.78637695 C19.88383198 29.52551327 19.91143535 32.24993846 19.90234375 34.98828125 C19.91402554 36.4564878 19.92703382 37.92468433 19.94129944 39.39286804 C19.96361709 42.46366283 19.96286748 45.5334227 19.94702148 48.60424805 C19.92966478 52.51590111 19.9803669 56.42327895 20.0500555 60.33422565 C20.09453627 63.36559784 20.0968478 66.39596196 20.08752632 69.42760277 C20.08905354 70.86799764 20.10453295 72.30845521 20.13496208 73.74852943 C20.27813494 81.47276902 19.96604119 86.77664147 14.70532227 92.69995117 C13.16956776 94.16826844 11.60153955 95.60373048 10 97 C8.53941053 98.39347236 7.08068782 99.78890793 5.625 101.1875 C3.7265625 102.91796875 3.7265625 102.91796875 2 104 C1.01 103.67 0.02 103.34 -1 103 C-0.67 69.01 -0.34 35.02 0 0 Z " fill="#1B496D" transform="translate(90,34)"/>
<path d="M0 0 C0.33 0 0.66 0 1 0 C1 34.32 1 68.64 1 104 C-6.07142857 100.46428571 -6.07142857 100.46428571 -8 98 C-8 97.34 -8 96.68 -8 96 C-8.89072205 95.58769135 -8.89072205 95.58769135 -9.79943848 95.16705322 C-13.62779964 93.13670725 -16.01398453 90.88968778 -18 87 C-18.84900049 81.91937786 -18.74872601 76.89534819 -18.65625 71.765625 C-18.65012672 70.2806678 -18.64638064 68.79569907 -18.64489746 67.31072998 C-18.63572589 64.21044412 -18.60700559 61.11120743 -18.5625 58.01123047 C-18.50573852 54.0376207 -18.4840538 50.06483142 -18.4751358 46.09085464 C-18.46682719 43.0299053 -18.44719551 39.96912144 -18.42338562 36.90825653 C-18.4119966 35.4426378 -18.40247379 33.97700333 -18.39485168 32.51136017 C-18.3811109 30.46743736 -18.35204855 28.42363481 -18.32226562 26.37988281 C-18.30860962 25.21741028 -18.29495361 24.05493774 -18.28088379 22.85723877 C-18 20 -18 20 -16 17 C-15.34 17 -14.68 17 -14 17 C-13.73832031 16.40960938 -13.47664062 15.81921875 -13.20703125 15.2109375 C-11.9360512 12.88286401 -10.60869648 11.43970001 -8.6875 9.625 C-6.34884124 7.36445928 -4.17381356 5.08917095 -2.125 2.5625 C-1.42375 1.716875 -0.7225 0.87125 0 0 Z " fill="#275377" transform="translate(22,34)"/>
<path d="M0 0 C6.74647887 5.62206573 6.74647887 5.62206573 9.5 8.875 C10.28890625 9.79925781 10.28890625 9.79925781 11.09375 10.7421875 C11.7228125 11.48726562 12.351875 12.23234375 13 13 C13.48408829 13.40418655 13.96817657 13.80837311 14.4669342 14.22480774 C18.57740906 18.03579015 19.46764532 21.23108914 19.82397461 26.78637695 C19.88383198 29.52551327 19.91143535 32.24993846 19.90234375 34.98828125 C19.91402554 36.4564878 19.92703382 37.92468433 19.94129944 39.39286804 C19.96361709 42.46366283 19.96286748 45.5334227 19.94702148 48.60424805 C19.92966478 52.51590111 19.9803669 56.42327895 20.0500555 60.33422565 C20.09453627 63.36559784 20.0968478 66.39596196 20.08752632 69.42760277 C20.08905354 70.86799764 20.10453295 72.30845521 20.13496208 73.74852943 C20.27813494 81.47276902 19.96604119 86.77664147 14.70532227 92.69995117 C13.16956776 94.16826844 11.60153955 95.60373048 10 97 C8.53941053 98.39347236 7.08068782 99.78890793 5.625 101.1875 C3.7265625 102.91796875 3.7265625 102.91796875 2 104 C1.01 103.67 0.02 103.34 -1 103 C-0.67 69.01 -0.34 35.02 0 0 Z M1 3 C1 34.68 1 66.36 1 99 C1.99 99.33 2.98 99.66 4 100 C4 99.34 4 98.68 4 98 C5.485 97.505 5.485 97.505 7 97 C9.71463073 95.19504488 9.71463073 95.19504488 12 93 C12 92.01 12 91.02 12 90 C12.61875 89.896875 13.2375 89.79375 13.875 89.6875 C16.36526484 89.12474627 16.36526484 89.12474627 18 86 C18.31893962 83.04857358 18.31893962 83.04857358 18.29052734 79.6484375 C18.30328705 78.33697754 18.31604675 77.02551758 18.32919312 75.67431641 C18.33225009 74.24121243 18.33447821 72.80810649 18.3359375 71.375 C18.34236364 69.90673695 18.34909186 68.43847519 18.35610962 66.97021484 C18.36808357 63.89352447 18.37179021 60.81694641 18.37060547 57.74023438 C18.37040199 53.79551072 18.39773283 49.85150516 18.43214989 45.9069519 C18.45437068 42.87521039 18.45844455 39.84364323 18.45738602 36.81182861 C18.45974816 35.3573356 18.4686062 33.90283822 18.48405075 32.44842529 C18.50361439 30.41623177 18.49537506 28.38382782 18.48583984 26.3515625 C18.4901149 24.61640381 18.4901149 24.61640381 18.49447632 22.84619141 C18.26248653 19.90817231 18.26248653 19.90817231 16.14151001 18.11474609 C13.58717177 16.78510553 11.84122601 16.76323117 9 17 C9.33 17.99 9.66 18.98 10 20 C9.34 20 8.68 20 8 20 C8 16.7 8 13.4 8 10 C7.34 9.67 6.68 9.34 6 9 C5 7.33333333 4 5.66666667 3 4 C2.34 3.67 1.68 3.34 1 3 Z " fill="#8BA1B3" transform="translate(90,34)"/>
<path d="M0 0 C0.66 0 1.32 0 2 0 C2.33 39.6 2.66 79.2 3 120 C2.01 119.67 1.02 119.34 0 119 C0 79.73 0 40.46 0 0 Z " fill="#738FA3" transform="translate(32,24)"/>
<path d="M0 0 C0.66 0 1.32 0 2 0 C3.62109375 1.64453125 3.62109375 1.64453125 5.4375 3.8125 C7.54463676 6.31102718 9.65241398 8.7242056 12 11 C11.67 11.66 11.34 12.32 11 13 C10.566875 12.525625 10.13375 12.05125 9.6875 11.5625 C7.97690387 9.76313043 7.97690387 9.76313043 5 9 C4.67 9.66 4.34 10.32 4 11 C3.34 10.67 2.68 10.34 2 10 C1.67 53.89 1.34 97.78 1 143 C0.34 142.67 -0.32 142.34 -1 142 C-0.67 95.14 -0.34 48.28 0 0 Z " fill="#5D7A8D" transform="translate(62,4)"/>
<path d="M0 0 C0.33 0 0.66 0 1 0 C1.86802518 17.76075601 2.13585994 35.47397434 2.09765625 53.25390625 C2.0957848 55.86376417 2.09436435 58.47362244 2.09336853 61.08348083 C2.09030384 67.17420358 2.08215862 73.2649076 2.07201904 79.35562223 C2.06070355 86.30890865 2.05530924 93.26219613 2.05032361 100.21548951 C2.0399698 114.4770029 2.02246838 128.73850078 2 143 C1.34 143.33 0.68 143.66 0 144 C-0.13051394 125.79807979 -0.26090572 107.5961587 -0.39115143 89.39423656 C-0.45162739 80.94308112 -0.51214357 72.49192597 -0.57275391 64.04077148 C-0.62557176 56.6761413 -0.67831469 49.31151058 -0.73096704 41.94687921 C-0.75885755 38.04612553 -0.78678598 34.14537213 -0.81480408 30.24461937 C-0.84116138 26.57492195 -0.8674187 22.90522382 -0.89359856 19.23552513 C-0.90783986 17.24296391 -0.92218788 15.25040345 -0.9365387 13.25784302 C-0.94495285 12.07573746 -0.953367 10.8936319 -0.96203613 9.67570496 C-0.96941048 8.64606219 -0.97678482 7.61641943 -0.98438263 6.55557537 C-0.99569935 4.70374418 -1 2.85186577 -1 1 C-0.67 0.67 -0.34 0.34 0 0 Z " fill="#3A5363" transform="translate(50,4)"/>
<path d="M0 0 C0.33 0 0.66 0 1 0 C1 31.35 1 62.7 1 95 C0.34 94.67 -0.32 94.34 -1 94 C-1 65.62 -1 37.24 -1 8 C-1.33 8.99 -1.66 9.98 -2 11 C-4.5625 12.1875 -4.5625 12.1875 -7 13 C-7.33 12.67 -7.66 12.34 -8 12 C-10.97 14.475 -10.97 14.475 -14 17 C-12.64054005 13.93284405 -11.11992465 11.92258958 -8.6875 9.625 C-6.34884124 7.36445928 -4.17381356 5.08917095 -2.125 2.5625 C-1.42375 1.716875 -0.7225 0.87125 0 0 Z " fill="#364F62" transform="translate(22,34)"/>
<path d="M0 0 C0.33 0 0.66 0 1 0 C1.91210157 6.97662599 2.14636453 13.79263617 2.1328125 20.82421875 C2.13376923 21.92925247 2.13472595 23.03428619 2.13571167 24.17280579 C2.13638868 26.49484311 2.13456803 28.81688238 2.13037109 31.13891602 C2.12500067 34.68705489 2.1303403 38.23506807 2.13671875 41.78320312 C2.13605818 44.04687528 2.13477747 46.31054735 2.1328125 48.57421875 C2.13483673 49.63058029 2.13686096 50.68694183 2.13894653 51.77531433 C2.12351987 56.62798521 2.0258382 61.23092202 1 66 C0.34 66 -0.32 66 -1 66 C-1.02312659 57.54232666 -1.0409167 49.08466644 -1.05181217 40.62696934 C-1.05704031 36.70011342 -1.06413669 32.77327906 -1.07543945 28.84643555 C-1.0862708 25.05985743 -1.09227736 21.2733001 -1.09487724 17.48670769 C-1.09673105 16.03895681 -1.10035081 14.59120712 -1.10573006 13.14346504 C-1.11294367 11.12242865 -1.11340808 9.10137152 -1.11352539 7.08032227 C-1.115746 5.92782486 -1.11796661 4.77532745 -1.12025452 3.58790588 C-1 1 -1 1 0 0 Z " fill="#26465E" transform="translate(6,55)"/>
<path d="M0 0 C0.33 0 0.66 0 1 0 C1.309375 1.5159375 1.309375 1.5159375 1.625 3.0625 C3.15634056 8.52206201 7.08877706 12.08877706 11 16 C11.33 16.66 11.66 17.32 12 18 C13.32 17.67 14.64 17.34 16 17 C16 18.98 16 20.96 16 23 C9.21917808 19.83561644 9.21917808 19.83561644 7 17 C7 16.34 7 15.68 7 15 C6.443125 14.79375 5.88625 14.5875 5.3125 14.375 C2.07498698 12.44999226 0.31768859 9.96149098 -2 7 C-1.34 6.67 -0.68 6.34 0 6 C0 4.02 0 2.04 0 0 Z " fill="#527088" transform="translate(7,115)"/>
<path d="M0 0 C0.33 0 0.66 0 1 0 C1.84187071 2.69398628 2.27690149 4.24665875 2 7 C-1.81262981 13.37127175 -8.41305624 18.23652867 -14 23 C-14.99 22.67 -15.98 22.34 -17 22 C-16.67 19.36 -16.34 16.72 -16 14 C-15.71125 14.639375 -15.4225 15.27875 -15.125 15.9375 C-14.17176549 18.15206079 -14.17176549 18.15206079 -12 19 C-12 18.34 -12 17.68 -12 17 C-9.35153397 14.63785462 -7.38483604 13.12827868 -4 12 C-4.33 11.01 -4.66 10.02 -5 9 C-3.35 8.67 -1.7 8.34 0 8 C0 5.36 0 2.72 0 0 Z " fill="#6B8596" transform="translate(106,115)"/>
<path d="M0 0 C4.56030824 3.80475422 8.85089392 7.74969621 13 12 C12.67 12.66 12.34 13.32 12 14 C11.01 13.34 10.02 12.68 9 12 C7.68 12 6.36 12 5 12 C5 12.66 5 13.32 5 14 C4.34 14 3.68 14 3 14 C2.67 10.7 2.34 7.4 2 4 C1.34 4 0.68 4 0 4 C0 2.68 0 1.36 0 0 Z " fill="#4D7089" transform="translate(95,40)"/>
<path d="M0 0 C0 0.99 0 1.98 0 3 C-0.66 3.66 -1.32 4.32 -2 5 C-1.67 5.99 -1.34 6.98 -1 8 C-1.33 8.99 -1.66 9.98 -2 11 C-4.5625 12.1875 -4.5625 12.1875 -7 13 C-7.33 12.67 -7.66 12.34 -8 12 C-10.97 14.475 -10.97 14.475 -14 17 C-12.64054005 13.93284405 -11.11992465 11.92258958 -8.6875 9.625 C-5.54073234 6.57698028 -2.7458279 3.41148314 0 0 Z " fill="#6A879E" transform="translate(22,34)"/>
<path d="M0 0 C3.49353838 1.74676919 5.13945763 2.91405215 7.75 5.625 C8.67039062 6.57246094 8.67039062 6.57246094 9.609375 7.5390625 C10.29773438 8.26222656 10.29773438 8.26222656 11 9 C10.67 9.66 10.34 10.32 10 11 C9.566875 10.525625 9.13375 10.05125 8.6875 9.5625 C6.97690387 7.76313043 6.97690387 7.76313043 4 7 C3.67 7.66 3.34 8.32 3 9 C2.34 8.67 1.68 8.34 1 8 C0.67 8.99 0.34 9.98 0 11 C0 7.37 0 3.74 0 0 Z " fill="#4F6E88" transform="translate(63,6)"/>
<path d="M0 0 C0.33 0 0.66 0 1 0 C1.33 8.25 1.66 16.5 2 25 C1.34 25 0.68 25 0 25 C-0.16783262 21.56255588 -0.33406544 18.12503622 -0.5 14.6875 C-0.57154297 13.22280273 -0.57154297 13.22280273 -0.64453125 11.72851562 C-0.68964844 10.79072266 -0.73476563 9.85292969 -0.78125 8.88671875 C-0.82314453 8.02264404 -0.86503906 7.15856934 -0.90820312 6.26831055 C-0.97922401 4.51337696 -1 2.75637008 -1 1 C-0.67 0.67 -0.34 0.34 0 0 Z " fill="#4D6172" transform="translate(50,4)"/>
<path d="M0 0 C0.7940625 0.07863281 1.588125 0.15726563 2.40625 0.23828125 C4.5 0.6875 4.5 0.6875 6.5 2.6875 C6.17 3.0175 5.84 3.3475 5.5 3.6875 C3.85130683 3.64969927 2.20405968 3.53279698 0.5625 3.375 C-0.33339844 3.29636719 -1.22929688 3.21773437 -2.15234375 3.13671875 C-4.5 2.6875 -4.5 2.6875 -6.5 0.6875 C-4.02756353 -0.54871824 -2.72682061 -0.29658601 0 0 Z " fill="#4E7087" transform="translate(41.5,143.3125)"/>
<path d="M0 0 C0.78375 0.185625 1.5675 0.37125 2.375 0.5625 C4.97089775 1.25962266 4.97089775 1.25962266 7 0 C7 1.98 7 3.96 7 6 C4.0625 4.6875 4.0625 4.6875 1 3 C0.67 2.01 0.34 1.02 0 0 Z " fill="#6E8390" transform="translate(16,132)"/>
<path d="" fill="#FFFFFF" transform="translate(0,0)"/>
<path d="" fill="#FFFFFF" transform="translate(0,0)"/>
<path d="" fill="#FFFFFF" transform="translate(0,0)"/>
<path d="" fill="#FFFFFF" transform="translate(0,0)"/>
<path d="" fill="#FFFFFF" transform="translate(0,0)"/>
<path d="" fill="#FFFFFF" transform="translate(0,0)"/>
<path d="" fill="#FFFFFF" transform="translate(0,0)"/>
<path d="" fill="#FFFFFF" transform="translate(0,0)"/>
<path d="" fill="#FFFFFF" transform="translate(0,0)"/>
<path d="" fill="#FFFFFF" transform="translate(0,0)"/>
<path d="" fill="#FFFFFF" transform="translate(0,0)"/>
<path d="" fill="#FFFFFF" transform="translate(0,0)"/>
<path d="" fill="#FFFFFF" transform="translate(0,0)"/>
<path d="" fill="#FFFFFF" transform="translate(0,0)"/>
<path d="" fill="#FFFFFF" transform="translate(0,0)"/>
<path d="" fill="#FFFFFF" transform="translate(0,0)"/>
<path d="" fill="#FFFFFF" transform="translate(0,0)"/>
<path d="" fill="#FFFFFF" transform="translate(0,0)"/>
<path d="" fill="#FFFFFF" transform="translate(0,0)"/>
<path d="" fill="#FFFFFF" transform="translate(0,0)"/>
<path d="" fill="#FFFFFF" transform="translate(0,0)"/>
<path d="" fill="#FFFFFF" transform="translate(0,0)"/>
<path d="" fill="#FFFFFF" transform="translate(0,0)"/>
<path d="" fill="#FFFFFF" transform="translate(0,0)"/>
<path d="" fill="#FFFFFF" transform="translate(0,0)"/>
<path d="" fill="#FFFFFF" transform="translate(0,0)"/>
<path d="" fill="#FFFFFF" transform="translate(0,0)"/>
<path d="" fill="#FFFFFF" transform="translate(0,0)"/>
<path d="" fill="#FFFFFF" transform="translate(0,0)"/>
<path d="" fill="#FFFFFF" transform="translate(0,0)"/>
<path d="" fill="#FFFFFF" transform="translate(0,0)"/>
<path d="" fill="#FFFFFF" transform="translate(0,0)"/>
<path d="" fill="#FFFFFF" transform="translate(0,0)"/>
<path d="" fill="#FFFFFF" transform="translate(0,0)"/>
<path d="" fill="#FFFFFF" transform="translate(0,0)"/>
<path d="" fill="#FFFFFF" transform="translate(0,0)"/>
<path d="" fill="#FFFFFF" transform="translate(0,0)"/>
</svg>
