<?xml version="1.0" encoding="UTF-8"?>
<svg version="1.1" xmlns="http://www.w3.org/2000/svg" width="500" height="500">
<g transform="translate(-62.5, -62.5) scale(1.25)">
<path d="M0 0 C3.00343637 0.32559377 3.90288795 0.88808428 5.921875 3.21484375 C6.52515625 4.11332031 7.1284375 5.01179688 7.75 5.9375 C8.36359375 6.83339844 8.9771875 7.72929688 9.609375 8.65234375 C11 11 11 11 11 13 C11.66 13 12.32 13 13 13 C14.61645508 15.18383789 14.61645508 15.18383789 16.51953125 18.22265625 C17.21240234 19.31900391 17.90527344 20.41535156 18.61914062 21.54492188 C19.35062305 22.71722172 20.08174014 23.8897496 20.8125 25.0625 C22.23260968 27.32616953 23.65709995 29.58701131 25.08203125 31.84765625 C25.7579834 32.92031738 26.43393555 33.99297852 27.13037109 35.09814453 C28.64492262 37.44888356 30.19580534 39.73561754 31.83984375 41.99609375 C33.7199876 44.61061567 35.26956391 47.14878975 36.75 50 C39.19715353 54.59156643 41.80184674 59.05390536 44.5 63.5 C47.57980941 68.58901538 50.54594688 73.71006502 53.3515625 78.95703125 C54.63442744 81.32516345 55.94197974 83.67103564 57.2734375 86.01171875 C62.52426505 95.27275424 67.33397155 104.63917284 71.796875 114.3046875 C73.42725057 117.82830441 75.15043714 121.29505407 76.90625 124.7578125 C80.08295226 131.0760987 82.93852152 137.51257183 85.75 144 C86.70225135 146.18788045 87.65534074 148.3753964 88.609375 150.5625 C89.02155273 151.51253906 89.43373047 152.46257812 89.85839844 153.44140625 C90.94520442 155.96445955 90.94520442 155.96445955 92.17285156 158.16796875 C93.31893661 160.70640505 92.72795433 162.37936441 92 165 C84.93548835 162.79311067 78.16455206 160.31775165 71.47265625 157.1484375 C69.04890699 155.93232669 69.04890699 155.93232669 66.49609375 155.3515625 C60.35019169 152.02373447 57.84180677 143.73105492 55.25 137.5625 C52.24888828 130.61702886 48.95454555 123.91761564 45.35864258 117.26269531 C42.78151088 112.49281391 40.32855162 107.67804617 37.9375 102.8125 C34.25008631 95.36740185 30.21680483 88.15887825 26 81 C25.51337891 80.17161621 25.02675781 79.34323242 24.52539062 78.48974609 C21.21840606 72.86364294 17.89677512 67.2463837 14.56445312 61.63525391 C13.11856992 59.19972592 11.67630254 56.76208965 10.234375 54.32421875 C9.42740804 52.96595286 8.62013952 51.60786608 7.8125 50.25 C7.450354 49.63648682 7.08820801 49.02297363 6.71508789 48.39086914 C5.28693921 45.99978369 3.97875121 43.97875121 2 42 C-8.57439681 56.47384899 -18.28895978 71.30949223 -26.91162109 87.02929688 C-27.99543789 88.9917395 -29.09746318 90.94264048 -30.20703125 92.890625 C-37.64988566 105.96255639 -44.64825678 119.26530809 -51.4375 132.6875 C-51.91425171 133.62142578 -51.91425171 133.62142578 -52.40063477 134.57421875 C-54.29202746 138.34988409 -55.86801203 142.15763866 -57.30981445 146.1184082 C-58.25502845 148.6952615 -59.31031526 151.22048056 -60.375 153.75 C-60.80683594 154.78253906 -61.23867187 155.81507813 -61.68359375 156.87890625 C-62.52291382 158.8688669 -63.3686079 160.85615955 -64.22265625 162.83984375 C-80.67277589 201.39977049 -92.54366353 247.69649513 -76.62890625 288.296875 C-74.85021118 292.51736093 -72.64798283 296.40827182 -70.1015625 300.21484375 C-69 302 -69 302 -69 304 C-68.34 304 -67.68 304 -67 304 C-65.34375 305.71484375 -65.34375 305.71484375 -63.5 307.9375 C-61.11073001 310.92045179 -61.11073001 310.92045179 -58 313 C-58 313.66 -58 314.32 -58 315 C-56.90945312 315.40605469 -56.90945312 315.40605469 -55.796875 315.8203125 C-53.07597395 316.96795512 -50.74416958 318.30187997 -48.25 319.875 C-35.800392 327.38486603 -21.58779237 331.4903828 -7 332 C-5.77410156 332.0515625 -4.54820312 332.103125 -3.28515625 332.15625 C22.60684639 332.89645846 46.58043913 326.26066667 65.83984375 308.25390625 C68.47941717 305.4997763 70.72104267 302.59914277 72.84375 299.43359375 C73.2253125 298.96050781 73.606875 298.48742187 74 298 C74.66 298 75.32 298 76 298 C76.2475 297.030625 76.495 296.06125 76.75 295.0625 C78 292 78 292 79.78125 291.15625 C82.7695731 290.94580471 84.20582661 291.9035131 86.75 293.4375 C87.94882812 294.14712891 87.94882812 294.14712891 89.171875 294.87109375 C89.77515625 295.24363281 90.3784375 295.61617188 91 296 C91 296.66 91 297.32 91 298 C91.556875 298.103125 92.11375 298.20625 92.6875 298.3125 C95.44176578 299.13133577 97.58727657 300.45853781 100 302 C99.46976913 306.48656891 97.77696931 309.06133866 95.0625 312.625 C94.35222656 313.56601562 93.64195312 314.50703125 92.91015625 315.4765625 C92.27980469 316.30929687 91.64945313 317.14203125 91 318 C90.34 318.99 89.68 319.98 89 321 C88.34 321 87.68 321 87 321 C86.62875 321.86625 86.62875 321.86625 86.25 322.75 C84.81700012 325.32939979 83.21575324 327.06121592 81 329 C80.34 329 79.68 329 79 329 C79 329.66 79 330.32 79 331 C76.93032699 332.67990977 74.86854931 334.22641501 72.6875 335.75 C71.73278809 336.42216553 71.73278809 336.42216553 70.75878906 337.10791016 C57.8291849 346.0783491 44.29529532 351.51735684 29 355 C28.24517334 355.18095215 27.49034668 355.3619043 26.71264648 355.54833984 C18.61613999 357.2757389 10.59327046 357.37227618 2.35083008 357.37060547 C-0.03443504 357.3749489 -2.41779825 357.41129617 -4.80273438 357.44921875 C-30.65779627 357.63564829 -56.48669701 349.24932861 -76 332 C-76.66902344 331.484375 -77.33804688 330.96875 -78.02734375 330.4375 C-95.51859814 316.58304108 -104.38588441 291.54680328 -107.5703125 270.171875 C-108.31062982 262.89335478 -108.24431109 255.55899809 -108.25 248.25 C-108.25067474 247.47066101 -108.25134949 246.69132202 -108.25204468 245.8883667 C-108.2348547 233.36410015 -107.55590278 221.293993 -105 209 C-104.83371094 208.17000488 -104.66742188 207.34000977 -104.49609375 206.48486328 C-101.51662775 191.93789641 -96.8888422 178.00045078 -92 164 C-91.49260126 162.51592842 -90.9859967 161.03158488 -90.48046875 159.546875 C-88.66951986 154.31646067 -86.84567035 149.74278391 -84 145 C-83.23256224 143.0773379 -82.50607526 141.13802394 -81.8125 139.1875 C-79.64113364 133.41657691 -77.0985796 127.98865753 -74.29418945 122.51098633 C-71.86074446 117.75043648 -69.54544772 112.94654956 -67.27905273 108.10424805 C-63.26263155 99.53399182 -59.0812155 91.22400799 -54.234375 83.08886719 C-52.74132763 80.5622625 -51.27702461 78.01980529 -49.8125 75.4765625 C-38.19529576 55.34007515 -25.81889769 36.01702398 -12.3918457 17.03686523 C-10.97361867 15.06005715 -10.97361867 15.06005715 -10 13 C-9.34 13 -8.68 13 -8 13 C-7.79375 12.34 -7.5875 11.68 -7.375 11 C-5.48847129 6.88393737 -2.79432021 3.5412297 0 0 Z M-4 37 C-6.98243333 39.82546315 -7.93848126 41.18487667 -8.25 45.3125 C-8.1675 46.199375 -8.085 47.08625 -8 48 C-7.34 47.67 -6.68 47.34 -6 47 C-5.32215008 44.66989091 -4.65583207 42.33640176 -4 40 C-2 38 -2 38 0.05859375 37.8046875 C0.84363281 37.82789063 1.62867188 37.85109375 2.4375 37.875 C3.61119141 37.90207031 3.61119141 37.90207031 4.80859375 37.9296875 C5.53175781 37.95289063 6.25492188 37.97609375 7 38 C7.99 38 8.98 38 10 38 C5.89182565 33.89182565 0.93174165 34.64134095 -4 37 Z M10 39 C10.33 41.97 10.66 44.94 11 48 C11.66 48 12.32 48 13 48 C13.25048636 45.12549017 13.25048636 45.12549017 13 42 C12.01 41.01 11.02 40.02 10 39 Z " fill="#1B537D" transform="translate(200,71)"/>
<path d="M0 0 C0.99515625 0.47953125 1.9903125 0.9590625 3.015625 1.453125 C9.62840158 4.80837617 15.51320458 8.71313581 21.5 13.0625 C37.25040955 24.44266135 56.82551665 32.41463198 76.55859375 29.46875 C89.1079183 27.14339681 101.70813441 23.29186559 111 14 C112.32 14 113.64 14 115 14 C115 14.66 115 15.32 115 16 C115.66 16 116.32 16 117 16 C117 16.66 117 17.32 117 18 C117.66 18 118.32 18 119 18 C119 18.66 119 19.32 119 20 C119.66 20 120.32 20 121 20 C121 20.66 121 21.32 121 22 C121.66 22 122.32 22 123 22 C126.74165141 25.19409266 128.27799257 27.17309638 129 32 C127.04594482 33.50587739 125.08718716 35.00478644 123.125 36.5 C122.56941406 36.92925781 122.01382813 37.35851562 121.44140625 37.80078125 C117.2265625 41 117.2265625 41 115 41 C115 41.66 115 42.32 115 43 C89.16885618 56.04381163 62.23017247 58.95901405 34.515625 49.85546875 C21.78924925 44.91130164 9.54705167 37.07471864 -1.26171875 28.7890625 C-16.00889607 17.53444298 -35.69856975 14.19366069 -53.7421875 16.47265625 C-68.66115887 19.06254005 -80.44096932 24.31366144 -92 34 C-96.875 31.375 -96.875 31.375 -98 28 C-98.66 28 -99.32 28 -100 28 C-101.98046875 25.953125 -101.98046875 25.953125 -104.1875 23.25 C-105.29158203 21.92742187 -105.29158203 21.92742187 -106.41796875 20.578125 C-108 18 -108 18 -107.94140625 15.875 C-103.05535234 6.14344034 -88.38740822 -0.40202504 -78.75 -3.8125 C-53.10808056 -11.56531732 -24.40707105 -12.27248205 0 0 Z " fill="#1B537D" transform="translate(279,310)"/>
<path d="M0 0 C0.70993103 0.00054382 1.41986206 0.00108765 2.15130615 0.00164795 C25.19674871 0.08287396 43.72663219 6.76956333 62.4765625 20.27734375 C82.00952743 34.33432939 100.08472803 42.21224288 124.6875 38.625 C134.7438657 36.6666551 142.50876415 32.34539286 150.90527344 26.640625 C151.56301758 26.20621094 152.22076172 25.77179688 152.8984375 25.32421875 C153.48415527 24.92549561 154.06987305 24.52677246 154.67333984 24.1159668 C156.94885475 23.16022534 158.15321768 23.57647309 160.4375 24.375 C160.4375 25.035 160.4375 25.695 160.4375 26.375 C161.0975 26.375 161.7575 26.375 162.4375 26.375 C164.05859375 28.23828125 164.05859375 28.23828125 165.875 30.6875 C168.32238309 34.01151363 168.32238309 34.01151363 171.22265625 36.91796875 C172.4375 38.375 172.4375 38.375 172.41015625 40.296875 C167.53281035 50.71754977 151.10865446 56.83468469 140.98046875 60.69140625 C119.3643819 67.77479142 94.70475497 67.23299626 73.9375 57.3515625 C72.43070762 56.5808459 70.9308399 55.79646926 69.4375 55 C68.62498779 54.57154785 67.81247559 54.1430957 66.9753418 53.70166016 C60.22672707 50.03221912 54.15503571 45.68477399 48.02441406 41.07739258 C33.12760553 30.03985234 18.47753804 25.19953748 0 25.1875 C-1.47823242 25.16913086 -1.47823242 25.16913086 -2.98632812 25.15039062 C-11.91843972 25.13263295 -19.47088929 26.81169963 -27.875 29.8125 C-29.04675781 30.22371094 -30.21851563 30.63492187 -31.42578125 31.05859375 C-34.24567451 32.24203588 -36.1556301 33.55257974 -38.5625 35.375 C-39.5525 35.375 -40.5425 35.375 -41.5625 35.375 C-41.5625 36.035 -41.5625 36.695 -41.5625 37.375 C-47.91792705 41.40825178 -47.91792705 41.40825178 -50.53125 41.2734375 C-53.33783272 40.03206437 -54.81423605 38.25030549 -56.8125 35.9375 C-57.87210938 34.73287109 -57.87210938 34.73287109 -58.953125 33.50390625 C-60.5625 31.375 -60.5625 31.375 -60.5625 29.375 C-61.2225 29.375 -61.8825 29.375 -62.5625 29.375 C-64.5625 26.375 -64.5625 26.375 -64.5625 22.375 C-46.88781863 6.49127471 -23.20871458 -0.06670139 0 0 Z " fill="#1B537D" transform="translate(235.5625,239.625)"/>
<path d="M0 0 C2.12109375 0.37109375 2.12109375 0.37109375 4.55859375 1.80859375 C6.7816965 5.45448227 7.44217134 9.19036104 8.12109375 13.37109375 C7.46109375 13.37109375 6.80109375 13.37109375 6.12109375 13.37109375 C6.58515625 14.48484375 6.58515625 14.48484375 7.05859375 15.62109375 C7.93058625 17.87801551 8.59776382 20.01610905 9.12109375 22.37109375 C6.15618444 19.76886448 4.48146452 16.72656923 2.55859375 13.30859375 C0.20866183 9.05946381 0.20866183 9.05946381 -2.87890625 5.37109375 C-6.17890625 9.99109375 -9.47890625 14.61109375 -12.87890625 19.37109375 C-13.20890625 18.05109375 -13.53890625 16.73109375 -13.87890625 15.37109375 C-13.21890625 15.37109375 -12.55890625 15.37109375 -11.87890625 15.37109375 C-12.53890625 14.38109375 -13.19890625 13.39109375 -13.87890625 12.37109375 C-14.07421875 9.890625 -14.07421875 9.890625 -14.00390625 7.18359375 C-13.98585937 6.28253906 -13.9678125 5.38148437 -13.94921875 4.453125 C-13.92601562 3.76605469 -13.9028125 3.07898438 -13.87890625 2.37109375 C-12.88890625 2.70109375 -11.89890625 3.03109375 -10.87890625 3.37109375 C-10.87890625 3.70109375 -10.87890625 4.03109375 -10.87890625 4.37109375 C-10.40453125 3.71109375 -9.93015625 3.05109375 -9.44140625 2.37109375 C-6.16332844 -0.18740601 -4.06624973 -0.22033866 0 0 Z " fill="#1B537D" transform="translate(204.87890625,107.62890625)"/>
<path d="M0 0 C0 0.66 0 1.32 0 2 C-7.5678544 8.30654534 -21.35115987 6.21752105 -30.69580078 6.24023438 C-33.12696704 6.25000791 -35.55730983 6.28115159 -37.98828125 6.3125 C-39.55728674 6.31902626 -41.12629815 6.32427821 -42.6953125 6.328125 C-43.76750534 6.3466452 -43.76750534 6.3466452 -44.86135864 6.36553955 C-50.15813067 6.3424302 -54.1251061 5.07194958 -59 3 C-55.41255241 1.80418414 -53.58121843 2.27966773 -49.875 2.9375 C-32.2682344 5.57400028 -16.93571611 0 0 0 Z " fill="#1B537D" transform="translate(235,399)"/>
<path d="M0 0 C0.90194092 0.00386719 1.80388184 0.00773437 2.7331543 0.01171875 C11.24348459 0.11939712 19.58721814 1.01509624 28 2.25 C28 3.24 28 4.23 28 5.25 C28.99 5.25 29.98 5.25 31 5.25 C31 5.91 31 6.57 31 7.25 C30.34515625 7.05664062 29.6903125 6.86328125 29.015625 6.6640625 C12.54274624 1.96417336 -2.09783213 1.41185487 -19 4.25 C-19 3.59 -19 2.93 -19 2.25 C-12.53191738 0.60689837 -6.66175049 -0.06999869 0 0 Z " fill="#1B537D" transform="translate(234,323.75)"/>
<path d="M0 0 C17.41835155 -0.64956561 33.68220711 0.51377025 50 7 C50 7.33 50 7.66 50 8 C44.40909106 8.34230055 41.07929276 7.20156779 36 5 C24.19845818 1.65670607 12.18201055 1.31858747 0 1 C0 0.67 0 0.34 0 0 Z " fill="#1B537D" transform="translate(225,301)"/>
<path d="M0 0 C0.66 0.33 1.32 0.66 2 1 C1.01 2.485 1.01 2.485 0 4 C-0.99 4 -1.98 4 -3 4 C-3.33 5.32 -3.66 6.64 -4 8 C-4.66 8 -5.32 8 -6 8 C-5.67 9.65 -5.34 11.3 -5 13 C-3.35 13.33 -1.7 13.66 0 14 C0.33 16.31 0.66 18.62 1 21 C0.34 21 -0.32 21 -1 21 C-2.98046875 18.953125 -2.98046875 18.953125 -5.1875 16.25 C-5.92355469 15.36828125 -6.65960938 14.4865625 -7.41796875 13.578125 C-9 11 -9 11 -8.9921875 8.90625 C-7.69700507 6.417868 -6.09639896 5.03194835 -3.9375 3.25 C-3.20402344 2.63640625 -2.47054687 2.0228125 -1.71484375 1.390625 C-1.14894531 0.93171875 -0.58304688 0.4728125 0 0 Z " fill="#1B537D" transform="translate(180,317)"/>
<path d="M0 0 C0.66 0.33 1.32 0.66 2 1 C1.7834375 1.8353125 1.7834375 1.8353125 1.5625 2.6875 C0.94049763 5.01219445 0.94049763 5.01219445 0.75 7.5 C-0.26913338 10.89711128 -2.24536733 11.83564576 -5 14 C-6.01559401 15.99212671 -7.01789629 17.9911515 -8 20 C-8.99 20.33 -9.98 20.66 -11 21 C-11 21.99 -11 22.98 -11 24 C-11.66 23.67 -12.32 23.34 -13 23 C-8.82758112 15.23593849 -4.47813934 7.59163858 0 0 Z " fill="#1B537D" transform="translate(157,135)"/>
<path d="M0 0 C-0.66 0 -1.32 0 -2 0 C-2 0.66 -2 1.32 -2 2 C-4.70649269 3.69155793 -7.0661133 4.2150566 -10.1875 4.5625 C-13.78190939 4.57461534 -13.78190939 4.57461534 -15 6 C-17.86267567 6.07325168 -20.700719 6.09238205 -23.5625 6.0625 C-24.36880859 6.05798828 -25.17511719 6.05347656 -26.00585938 6.04882812 C-28.00393756 6.03700518 -30.00197783 6.01906914 -32 6 C-32 5.67 -32 5.34 -32 5 C-31.10861328 4.88724731 -31.10861328 4.88724731 -30.19921875 4.7722168 C-27.46476464 4.42057578 -24.73248163 4.05414139 -22 3.6875 C-20.59814453 3.51057617 -20.59814453 3.51057617 -19.16796875 3.33007812 C-14.71885035 2.72338016 -10.67774041 2.01250055 -6.5 0.33203125 C-3 -1 -3 -1 0 0 Z " fill="#1B537D" transform="translate(375,336)"/>
<path d="M0 0 C1.23556641 0.01740234 1.23556641 0.01740234 2.49609375 0.03515625 C3.32238281 0.04417969 4.14867187 0.05320312 5 0.0625 C5.63808594 0.07410156 6.27617187 0.08570313 6.93359375 0.09765625 C6.93359375 0.42765625 6.93359375 0.75765625 6.93359375 1.09765625 C5.73734375 1.32453125 4.54109375 1.55140625 3.30859375 1.78515625 C-5.14861403 3.66453576 -13.75699573 6.38500999 -21.06640625 11.09765625 C-21.06640625 9.77765625 -21.06640625 8.45765625 -21.06640625 7.09765625 C-19.74640625 7.09765625 -18.42640625 7.09765625 -17.06640625 7.09765625 C-16.73640625 6.10765625 -16.40640625 5.11765625 -16.06640625 4.09765625 C-13.16015625 3.18359375 -13.16015625 3.18359375 -9.56640625 2.47265625 C-6.31781583 1.81587601 -3.03681528 0.14351679 0 0 Z " fill="#1B537D" transform="translate(217.06640625,263.90234375)"/>
<path d="M0 0 C0 2 0 2 -1.3203125 3.4375 C-4.32281904 6.03707276 -6.47649586 7.83208358 -10.3125 9.0625 C-13.2462084 9.74244506 -13.2462084 9.74244506 -14.375 12.625 C-14.58125 13.40875 -14.7875 14.1925 -15 15 C-15.66 14.67 -16.32 14.34 -17 14 C-17 12.68 -17 11.36 -17 10 C-14.8941563 8.23524366 -12.92061586 6.78237218 -10.625 5.3125 C-10.02171875 4.90966797 -9.4184375 4.50683594 -8.796875 4.09179688 C-2.628337 0 -2.628337 0 0 0 Z " fill="#1B537D" transform="translate(188,252)"/>
<path d="M0 0 C0.99 0 1.98 0 3 0 C3 0.66 3 1.32 3 2 C5.31 2 7.62 2 10 2 C10 2.99 10 3.98 10 5 C11.1446875 5.061875 11.1446875 5.061875 12.3125 5.125 C15 6 15 6 16.8125 9.0625 C17.204375 10.031875 17.59625 11.00125 18 12 C13.98544673 10.06706695 10.23844475 7.75514924 6.4375 5.4375 C4.32613805 4.19233783 2.20733252 3.06278973 0 2 C0 1.34 0 0.68 0 0 Z " fill="#1B537D" transform="translate(266,330)"/>
<path d="M0 0 C0.99 0.33 1.98 0.66 3 1 C3 1.33 3 1.66 3 2 C3.66 1.67 4.32 1.34 5 1 C4.67 3.31 4.34 5.62 4 8 C4.66 8 5.32 8 6 8 C4.68775452 11.93673644 3.08089673 14.22719294 0 17 C0 15.68 0 14.36 0 13 C0.66 13 1.32 13 2 13 C1.34 12.01 0.68 11.02 0 10 C-0.1953125 7.51953125 -0.1953125 7.51953125 -0.125 4.8125 C-0.10695312 3.91144531 -0.08890625 3.01039062 -0.0703125 2.08203125 C-0.04710937 1.39496094 -0.02390625 0.70789063 0 0 Z " fill="#1B537D" transform="translate(191,110)"/>
<path d="M0 0 C0.70125 0.44730469 1.4025 0.89460938 2.125 1.35546875 C5.08169959 3.23956129 8.04037718 5.12050303 11 7 C11.78246094 7.49757813 12.56492187 7.99515625 13.37109375 8.5078125 C14.05300781 8.93835938 14.73492187 9.36890625 15.4375 9.8125 C16.33275391 10.37904297 16.33275391 10.37904297 17.24609375 10.95703125 C19.12120001 12.07207217 21.03820456 13.04712793 23 14 C18.82412255 15.39195915 16.86525224 13.82323219 13 12 C13 11.34 13 10.68 13 10 C12.195625 9.87625 11.39125 9.7525 10.5625 9.625 C9.716875 9.41875 8.87125 9.2125 8 9 C7.67 8.34 7.34 7.68 7 7 C6.01 6.67 5.02 6.34 4 6 C1.8125 4.0625 1.8125 4.0625 0 2 C0 1.34 0 0.68 0 0 Z " fill="#1B537D" transform="translate(294,319)"/>
<path d="M0 0 C0.66 0 1.32 0 2 0 C2.26554688 0.60328125 2.53109375 1.2065625 2.8046875 1.828125 C3.33449219 3.02695313 3.33449219 3.02695313 3.875 4.25 C4.22304688 5.03890625 4.57109375 5.8278125 4.9296875 6.640625 C5.95199068 8.97727808 5.95199068 8.97727808 7.1328125 11.046875 C8 13 8 13 8 17 C8.66 17 9.32 17 10 17 C10.33 18.98 10.66 20.96 11 23 C8.39065936 21.69532968 8.07875858 20.46776917 6.8359375 17.8515625 C6.43632812 17.01109375 6.03671875 16.170625 5.625 15.3046875 C5.2125 14.42039063 4.8 13.53609375 4.375 12.625 C3.95476562 11.7484375 3.53453125 10.871875 3.1015625 9.96875 C0 3.38296469 0 3.38296469 0 0 Z " fill="#1B537D" transform="translate(252,199)"/>
<path d="M0 0 C0.59425781 0.30292969 1.18851562 0.60585938 1.80078125 0.91796875 C8.12754636 4.11578937 14.52791145 7.10847755 21 10 C17.44757118 11.18414294 16.30169438 10.69535532 12.8125 9.5625 C11.91144531 9.27503906 11.01039063 8.98757813 10.08203125 8.69140625 C9.39496094 8.46324219 8.70789063 8.23507812 8 8 C8 7.34 8 6.68 8 6 C6.35 5.67 4.7 5.34 3 5 C3 4.34 3 3.68 3 3 C2.01 2.67 1.02 2.34 0 2 C0 1.34 0 0.68 0 0 Z " fill="#1B537D" transform="translate(307,267)"/>
<path d="M0 0 C0.66 0.33 1.32 0.66 2 1 C0.10463724 7.51819877 -2.5178994 13.17814801 -6 19 C-7.24752897 15.25741309 -6.5279335 14.53837233 -5 11 C-4.67 9.7625 -4.34 8.525 -4 7.25 C-3.67 6.1775 -3.34 5.105 -3 4 C-2.34 3.67 -1.68 3.34 -1 3 C-0.67 2.01 -0.34 1.02 0 0 Z " fill="#1B537D" transform="translate(151,192)"/>
<path d="M0 0 C0.66 0.33 1.32 0.66 2 1 C-4.08883528 6.632908 -8.62288177 9.12242135 -17 9 C-14.54686979 6.54686979 -12.28167831 5.77986726 -9.0625 4.5 C-5.7458818 3.17818862 -2.97816228 1.98544152 0 0 Z " fill="#1B537D" transform="translate(252,390)"/>
<path d="M0 0 C1 3 1 3 0.0625 5.1875 C-0.288125 5.785625 -0.63875 6.38375 -1 7 C-1.66 7 -2.32 7 -3 7 C-3.04125 7.5775 -3.0825 8.155 -3.125 8.75 C-4.44065958 12.13312465 -6.96552364 13.19222685 -10 15 C-10.66 14.67 -11.32 14.34 -12 14 C-11.52949219 13.55269531 -11.05898438 13.10539062 -10.57421875 12.64453125 C-7.10877117 9.27953143 -4.42332923 6.20894024 -2 2 C-1.34 2 -0.68 2 0 2 C0 1.34 0 0.68 0 0 Z " fill="#1B537D" transform="translate(276,367)"/>
<path d="M0 0 C2.92521913 3.6102388 5.0625098 7.54689328 7.25 11.625 C7.62640625 12.305625 8.0028125 12.98625 8.390625 13.6875 C9.32475399 15.42525466 10.17004594 17.21014959 11 19 C10.67 19.66 10.34 20.32 10 21 C7.17902947 19.58951473 7.14495507 17.92599628 6 15 C4.71943263 12.63465448 3.35297777 10.32543055 2 8 C0.14290421 4.75008236 0 3.9979926 0 0 Z " fill="#1B537D" transform="translate(258,160)"/>
<path d="M0 0 C1 2 1 2 0.43359375 3.76953125 C-2.0150884 8.79173032 -4.4779607 11.71124415 -9 15 C-9 12 -9 12 -8 10 C-7.34 10 -6.68 10 -6 10 C-5.7525 9.278125 -5.505 8.55625 -5.25 7.8125 C-3.89016326 4.75286734 -2.17082246 2.5326262 0 0 Z " fill="#1B537D" transform="translate(198,74)"/>
<path d="M0 0 C2.31 0.33 4.62 0.66 7 1 C7 1.66 7 2.32 7 3 C8.27875 3.0825 9.5575 3.165 10.875 3.25 C13.0859375 3.51171875 13.0859375 3.51171875 15 4 C16.5 6.0625 16.5 6.0625 17 8 C12.76677156 7.37954537 9.47709705 5.89476441 5.6875 3.9375 C4.61886719 3.38964844 3.55023438 2.84179688 2.44921875 2.27734375 C1.64097656 1.85582031 0.83273437 1.43429687 0 1 C0 0.67 0 0.34 0 0 Z " fill="#1B537D" transform="translate(301,291)"/>
<path d="M0 0 C0.66 0 1.32 0 2 0 C0.51095825 3.89608498 -1.24378713 7.59097018 -3.125 11.3125 C-3.66382813 12.38113281 -4.20265625 13.44976562 -4.7578125 14.55078125 C-5.37269531 15.76314453 -5.37269531 15.76314453 -6 17 C-6.33 17 -6.66 17 -7 17 C-7 15.02 -7 13.04 -7 11 C-6.34 10.67 -5.68 10.34 -5 10 C-4.27306096 8.02111039 -3.60183749 6.02045442 -3 4 C-2.34 4 -1.68 4 -1 4 C-0.67 2.68 -0.34 1.36 0 0 Z " fill="#1B537D" transform="translate(160,176)"/>
<path d="M0 0 C0.33 0.66 0.66 1.32 1 2 C0.34 2 -0.32 2 -1 2 C-1.2475 2.5775 -1.495 3.155 -1.75 3.75 C-3.18299988 6.32939979 -4.78424676 8.06121592 -7 10 C-7.66 10 -8.32 10 -9 10 C-8.52695318 5.74257863 -6.1136178 3.74294902 -3 1 C-2.01 0.67 -1.02 0.34 0 0 Z " fill="#1B537D" transform="translate(288,390)"/>
<path d="M0 0 C10 11.53846154 10 11.53846154 10 17 C9.34 17 8.68 17 8 17 C8 16.01 8 15.02 8 14 C7.34 14 6.68 14 6 14 C6 13.01 6 12.02 6 11 C5.34 11 4.68 11 4 11 C0 4.5 0 4.5 0 0 Z " fill="#1B537D" transform="translate(238,125)"/>
<path d="M0 0 C1.0703125 1.77734375 1.0703125 1.77734375 2 4 C0.55884822 8.56364729 -0.80887721 11.54313492 -5 14 C-4.46515599 8.65155992 -2.53309233 4.64203897 0 0 Z " fill="#1B537D" transform="translate(122,202)"/>
<path d="M0 0 C1.32 0 2.64 0 4 0 C4 0.66 4 1.32 4 2 C7.465 1.505 7.465 1.505 11 1 C9.35 2.65 7.7 4.3 6 6 C1.125 3.375 1.125 3.375 0 0 Z " fill="#1B537D" transform="translate(181,338)"/>
<path d="M0 0 C0 0.66 0 1.32 0 2 C0.66 2 1.32 2 2 2 C2 2.66 2 3.32 2 4 C0.8553125 3.938125 0.8553125 3.938125 -0.3125 3.875 C-3.22718416 3.77919176 -3.22718416 3.77919176 -6 6 C-8.1875 5.625 -8.1875 5.625 -10 5 C-4.5 0 -4.5 0 0 0 Z " fill="#1B537D" transform="translate(394,324)"/>
<path d="M0 0 C-5.50623443 3.49602186 -9.40770855 5.7013076 -16 5 C-14.54987453 2.09974906 -12.68687091 1.91293145 -9.6875 0.8125 C-8.72199219 0.44769531 -7.75648438 0.08289063 -6.76171875 -0.29296875 C-3.9652203 -1.008904 -2.66140462 -0.99249531 0 0 Z " fill="#1B537D" transform="translate(208,306)"/>
<path d="M0 0 C4.97965084 -0.28728755 7.1724213 -0.10990769 11 3 C13.33183607 3.67188497 15.66501142 4.33915417 18 5 C18.33 5.66 18.66 6.32 19 7 C14.71620357 6.28739906 10.74906147 4.93078264 6.6875 3.4375 C6.04232422 3.20353516 5.39714844 2.96957031 4.73242188 2.72851562 C3.15378781 2.15552993 1.57672974 1.57820536 0 1 C0 0.67 0 0.34 0 0 Z " fill="#1B537D" transform="translate(270,227)"/>
<path d="M0 0 C1.77260631 0.45142775 3.5430368 0.91140523 5.3125 1.375 C6.79169922 1.75785156 6.79169922 1.75785156 8.30078125 2.1484375 C11 3 11 3 14 5 C10.7 5.33 7.4 5.66 4 6 C3.67 5.01 3.34 4.02 3 3 C1.50014391 1.33289654 1.50014391 1.33289654 0 0 Z " fill="#1B537D" transform="translate(317,334)"/>
<path d="M0 0 C-2.0780065 1.17713663 -4.16151783 2.34171974 -6.25 3.5 C-7.12978516 4.00080078 -7.12978516 4.00080078 -8.02734375 4.51171875 C-11.38582107 6.36076806 -13.06645784 7 -17 7 C-17 6.34 -17 5.68 -17 5 C-14.03 4.34 -11.06 3.68 -8 3 C-8 2.34 -8 1.68 -8 1 C-3.375 -1.125 -3.375 -1.125 0 0 Z " fill="#1B537D" transform="translate(267,411)"/>
<path d="M0 0 C1.51400391 0.01740234 1.51400391 0.01740234 3.05859375 0.03515625 C4.07050781 0.04417969 5.08242188 0.05320312 6.125 0.0625 C7.29869141 0.07990234 7.29869141 0.07990234 8.49609375 0.09765625 C7.49609375 2.09765625 7.49609375 2.09765625 4.68359375 3.22265625 C1.49609375 4.09765625 1.49609375 4.09765625 -2.50390625 4.09765625 C-2.83390625 3.10765625 -3.16390625 2.11765625 -3.50390625 1.09765625 C-2.50390625 0.09765625 -2.50390625 0.09765625 0 0 Z " fill="#1B537D" transform="translate(372.50390625,296.90234375)"/>
<path d="M0 0 C0.66 0.33 1.32 0.66 2 1 C-0.62637999 4.69638666 -2.52740559 6.8818514 -7 8 C-9.15625 7.5390625 -9.15625 7.5390625 -11 7 C-9.21475351 5.80286983 -7.4215972 4.61752721 -5.625 3.4375 C-4.62726563 2.77621094 -3.62953125 2.11492187 -2.6015625 1.43359375 C-1.74304688 0.96050781 -0.88453125 0.48742187 0 0 Z " fill="#1B537D" transform="translate(387,266)"/>
<path d="M0 0 C3.08813543 3.08813543 4.62961201 6.88173558 6 11 C5.75 14.0625 5.75 14.0625 5 16 C4.01 15.34 3.02 14.68 2 14 C2.66 14 3.32 14 4 14 C3.71125 13.32453125 3.4225 12.6490625 3.125 11.953125 C2.75375 11.06109375 2.3825 10.1690625 2 9.25 C1.62875 8.36828125 1.2575 7.4865625 0.875 6.578125 C0 4 0 4 0 0 Z " fill="#1B537D" transform="translate(287,220)"/>
<path d="M0 0 C0.33 0.99 0.66 1.98 1 3 C0.03567924 4.68756133 -0.9731657 6.3497306 -2 8 C-3.09396579 10.63925379 -4.04141908 13.30684407 -5 16 C-5.33 16 -5.66 16 -6 16 C-5.5692014 9.8611199 -4.56008841 4.56008841 0 0 Z " fill="#1B537D" transform="translate(143,212)"/>
<path d="M0 0 C0.85739516 3.1546906 1.18782371 4.89338414 0 8 C-1.9375 11.25 -1.9375 11.25 -4 14 C-4.66 14 -5.32 14 -6 14 C-4.50829734 9.0276578 -2.39542583 4.58154261 0 0 Z " fill="#1B537D" transform="translate(134,177)"/>
<path d="M0 0 C0.66 0 1.32 0 2 0 C0.45454854 5.47932789 -2.15543212 10.11429181 -5 15 C-5.33 15 -5.66 15 -6 15 C-6.61528766 9.92387682 -4.61658349 7.17017994 -2 3 C-1.34 3 -0.68 3 0 3 C0 2.01 0 1.02 0 0 Z " fill="#1B537D" transform="translate(168,161)"/>
<path d="M0 0 C2.9719385 1.12451727 5.33440687 2.22293791 8 4 C7.625 6.4375 7.625 6.4375 7 9 C6.01 9.495 6.01 9.495 5 10 C4.9175 9.236875 4.835 8.47375 4.75 7.6875 C3.84504809 4.44475565 2.71226652 3.83734184 0 2 C0 1.34 0 0.68 0 0 Z " fill="#1B537D" transform="translate(292,369)"/>
<path d="M0 0 C3.49422385 0.80570696 6.85317353 1.91791717 10.25 3.0625 C11.32765625 3.42472656 12.4053125 3.78695313 13.515625 4.16015625 C14.33546875 4.43730469 15.1553125 4.71445312 16 5 C16 5.33 16 5.66 16 6 C9.58076669 5.70887831 5.37899794 4.54784971 0 1 C0 0.67 0 0.34 0 0 Z " fill="#1B537D" transform="translate(157,395)"/>
<path d="M0 0 C-4.20872298 2.17692568 -7.43483879 3.12422287 -12.1875 3.0625 C-13.53908203 3.04896484 -13.53908203 3.04896484 -14.91796875 3.03515625 C-15.60503906 3.02355469 -16.29210937 3.01195312 -17 3 C-11.27901246 0.04335518 -6.34551212 -0.10755105 0 0 Z " fill="#1B537D" transform="translate(225,302)"/>
<path d="M0 0 C0.66 0 1.32 0 2 0 C2.33 0.66 2.66 1.32 3 2 C5.01669827 3.13350534 5.01669827 3.13350534 7 4 C6.67 4.99 6.34 5.98 6 7 C5.01 6.67 4.02 6.34 3 6 C3 5.34 3 4.68 3 4 C1.68 4 0.36 4 -1 4 C-0.67 2.68 -0.34 1.36 0 0 Z " fill="#1B537D" transform="translate(325,473)"/>
<path d="M0 0 C1.65 0 3.3 0 5 0 C3.625 1.5 3.625 1.5 2 3 C1.34 3 0.68 3 0 3 C0 3.66 0 4.32 0 5 C-2.35438733 6.42944945 -3.48032433 7.08661261 -6.25 6.625 C-6.8275 6.41875 -7.405 6.2125 -8 6 C-5 4 -5 4 -1 4 C-0.67 2.68 -0.34 1.36 0 0 Z " fill="#1B537D" transform="translate(394,348)"/>
<path d="M0 0 C0 0.99 0 1.98 0 3 C-1.32 3 -2.64 3 -4 3 C-4 3.66 -4 4.32 -4 5 C-5.32 5 -6.64 5 -8 5 C-7.67 3.68 -7.34 2.36 -7 1 C-4.50935112 0.31292445 -2.62113708 0 0 0 Z " fill="#1B537D" transform="translate(185,288)"/>
<path d="M0 0 C5.4611399 0.96891192 5.4611399 0.96891192 8 2 C9.5 4.625 9.5 4.625 10 7 C5.56541027 5.6062718 3.12621626 3.39417765 0 0 Z " fill="#1B537D" transform="translate(287,282)"/>
<path d="M0 0 C0.64453125 1.765625 0.64453125 1.765625 1 4 C0.07421875 5.921875 0.07421875 5.921875 -1.3125 7.75 C-1.98732422 8.67039062 -1.98732422 8.67039062 -2.67578125 9.609375 C-3.11277344 10.06828125 -3.54976562 10.5271875 -4 11 C-4.66 11 -5.32 11 -6 11 C-4.54955729 6.89041233 -2.48889248 3.56741255 0 0 Z " fill="#1B537D" transform="translate(172,111)"/>
<path d="M0 0 C0.66 0 1.32 0 2 0 C1.37321829 3.66172475 0.35548154 6.8818995 -1.0625 10.3125 C-1.42472656 11.19550781 -1.78695312 12.07851562 -2.16015625 12.98828125 C-2.43730469 13.65214844 -2.71445313 14.31601563 -3 15 C-4.09658936 11.71023192 -3.79953138 10.28696233 -3 7 C-2.34 7 -1.68 7 -1 7 C-0.67 4.69 -0.34 2.38 0 0 Z " fill="#1B537D" transform="translate(135,228)"/>
<path d="M0 0 C0.99 0 1.98 0 3 0 C3 1.98 3 3.96 3 6 C1.68 6.33 0.36 6.66 -1 7 C-0.67 4.69 -0.34 2.38 0 0 Z " fill="#1B537D" transform="translate(196,111)"/>
<path d="M0 0 C2.94956528 1.36944102 5.52468811 2.87830409 8 5 C8 5.66 8 6.32 8 7 C4.06326356 5.68775452 1.77280706 4.08089673 -1 1 C-0.67 0.67 -0.34 0.34 0 0 Z " fill="#1B537D" transform="translate(130,405)"/>
<path d="M0 0 C1.90389849 2.85584773 2.69462177 4.9311762 3.625 8.1875 C4.01558594 9.53908203 4.01558594 9.53908203 4.4140625 10.91796875 C4.60742188 11.60503906 4.80078125 12.29210937 5 13 C3.046875 11.82421875 3.046875 11.82421875 1 10 C0.390625 7.51953125 0.390625 7.51953125 0.25 4.8125 C0.19328125 3.91144531 0.1365625 3.01039063 0.078125 2.08203125 C0.05234375 1.39496094 0.0265625 0.70789063 0 0 Z " fill="#1B537D" transform="translate(119,350)"/>
<path d="M0 0 C0.33 0 0.66 0 1 0 C0.91266424 1.60517097 0.80447776 3.20921662 0.6875 4.8125 C0.62949219 5.70582031 0.57148437 6.59914062 0.51171875 7.51953125 C-0.06313581 10.30604 -0.8206856 11.24135754 -3 13 C-4 11 -4 11 -3.22265625 8.3984375 C-2.83980469 7.40070313 -2.45695312 6.40296875 -2.0625 5.375 C-1.68222656 4.37210938 -1.30195312 3.36921875 -0.91015625 2.3359375 C-0.60980469 1.56507813 -0.30945313 0.79421875 0 0 Z " fill="#1B537D" transform="translate(108,235)"/>
<path d="M0 0 C0.33 1.32 0.66 2.64 1 4 C-0.21484375 5.921875 -0.21484375 5.921875 -1.9375 7.75 C-2.50339844 8.36359375 -3.06929687 8.9771875 -3.65234375 9.609375 C-4.31943359 10.29773438 -4.31943359 10.29773438 -5 11 C-5.66 10.67 -6.32 10.34 -7 10 C-3.535 5.05 -3.535 5.05 0 0 Z " fill="#1B537D" transform="translate(183,95)"/>
<path d="M0 0 C0.99 0.33 1.98 0.66 3 1 C4.1875 4.0625 4.1875 4.0625 5 7 C5.99 7 6.98 7 8 7 C8 8.65 8 10.3 8 12 C4.02502456 8.59287819 2.13206212 4.67239145 0 0 Z " fill="#1B537D" transform="translate(104,377)"/>
<path d="M0 0 C0.99 0.33 1.98 0.66 3 1 C3.984375 3.21484375 3.984375 3.21484375 4.75 5.9375 C5.14445313 7.28134766 5.14445313 7.28134766 5.546875 8.65234375 C6 11 6 11 5 13 C4.15930585 11.39967863 3.32768495 9.79458829 2.5 8.1875 C1.80390625 6.84751953 1.80390625 6.84751953 1.09375 5.48046875 C0 3 0 3 0 0 Z " fill="#1B537D" transform="translate(210,120)"/>
<path d="M0 0 C1.60379341 -0.05416188 3.20811406 -0.09286638 4.8125 -0.125 C5.70582031 -0.14820312 6.59914062 -0.17140625 7.51953125 -0.1953125 C10 0 10 0 13 2 C11.86111328 2.07347656 11.86111328 2.07347656 10.69921875 2.1484375 C9.70535156 2.22320312 8.71148437 2.29796875 7.6875 2.375 C6.20830078 2.47941406 6.20830078 2.47941406 4.69921875 2.5859375 C1.78471567 2.83865472 1.78471567 2.83865472 -1 5 C-0.67 3.35 -0.34 1.7 0 0 Z " fill="#1B537D" transform="translate(195,105)"/>
<path d="M0 0 C-1.62249941 0.83819158 -3.24808497 1.6704116 -4.875 2.5 C-6.23238281 3.19609375 -6.23238281 3.19609375 -7.6171875 3.90625 C-10 5 -10 5 -12 5 C-12 4.01 -12 3.02 -12 2 C-10.56656 1.46809459 -9.12804633 0.94984742 -7.6875 0.4375 C-6.48673828 0.00244141 -6.48673828 0.00244141 -5.26171875 -0.44140625 C-3 -1 -3 -1 0 0 Z " fill="#1B537D" transform="translate(208,331)"/>
<path d="M0 0 C0.33 0.66 0.66 1.32 1 2 C0.22265625 3.7265625 0.22265625 3.7265625 -0.9375 5.625 C-1.618125 6.73875 -2.29875 7.8525 -3 9 C-3.33 9 -3.66 9 -4 9 C-3.67 6.36 -3.34 3.72 -3 1 C-2.01 0.67 -1.02 0.34 0 0 Z " fill="#1B537D" transform="translate(180,142)"/>
<path d="M0 0 C0.66 0.33 1.32 0.66 2 1 C-1.07999946 4.67230705 -3.2482602 5.56802365 -8 6 C-5.54080489 3.3651481 -3.42227589 1.25483449 0 0 Z " fill="#1B537D" transform="translate(190,311)"/>
<path d="M0 0 C1.48280196 0.78483659 2.9611498 1.57809334 4.4375 2.375 C5.67306641 3.03628906 5.67306641 3.03628906 6.93359375 3.7109375 C9 5 9 5 10 7 C6.4257023 6.67506385 4.44287547 6.36129314 1.625 4.0625 C0 2 0 2 0 0 Z " fill="#1B537D" transform="translate(294,258)"/>
<path d="M0 0 C0.66 0 1.32 0 2 0 C2 0.66 2 1.32 2 2 C3.2065625 2.433125 3.2065625 2.433125 4.4375 2.875 C7 4 7 4 8 6 C5.23723823 5.47731534 2.6739124 4.89130413 0 4 C0 2.68 0 1.36 0 0 Z " fill="#1B537D" transform="translate(140,384)"/>
<path d="M0 0 C-3.35327639 2.23551759 -3.90743657 2.17283528 -7.6875 1.625 C-8.49574219 1.51414062 -9.30398438 1.40328125 -10.13671875 1.2890625 C-10.75160156 1.19367188 -11.36648438 1.09828125 -12 1 C-12 0.67 -12 0.34 -12 0 C-3.42857143 -1.28571429 -3.42857143 -1.28571429 0 0 Z " fill="#1B537D" transform="translate(366,279)"/>
<path d="M0 0 C1.13643966 3.40931897 0.86747764 4.00335456 -0.4375 7.1875 C-0.86869141 8.26064453 -0.86869141 8.26064453 -1.30859375 9.35546875 C-1.53675781 9.89816406 -1.76492187 10.44085938 -2 11 C-2.33 11 -2.66 11 -3 11 C-3.125 4.25 -3.125 4.25 -2 2 C-1.34 2 -0.68 2 0 2 C0 1.34 0 0.68 0 0 Z " fill="#1B537D" transform="translate(130,243)"/>
<path d="M0 0 C2 1 2 1 2.8515625 3.06640625 C3.10679687 3.89011719 3.36203125 4.71382812 3.625 5.5625 C3.88539063 6.38878906 4.14578125 7.21507812 4.4140625 8.06640625 C4.60742188 8.70449219 4.80078125 9.34257812 5 10 C4.34 10 3.68 10 3 10 C0.96564469 6.27034861 0 4.33094958 0 0 Z " fill="#1B537D" transform="translate(280,205)"/>
<path d="M0 0 C0.6875 1.625 0.6875 1.625 1 4 C-0.4375 7.25 -0.4375 7.25 -2 10 C-2.66 9.67 -3.32 9.34 -4 9 C-3.52418802 7.68628013 -3.04424851 6.37405454 -2.5625 5.0625 C-2.29566406 4.33160156 -2.02882813 3.60070312 -1.75390625 2.84765625 C-1 1 -1 1 0 0 Z " fill="#1B537D" transform="translate(116,216)"/>
<path d="M0 0 C0.99 0.33 1.98 0.66 3 1 C3 1.66 3 2.32 3 3 C3.66 3 4.32 3 5 3 C5 4.98 5 6.96 5 9 C1.9083091 6.47043472 1.09068668 3.77545388 0 0 Z " fill="#1B537D" transform="translate(227,152)"/>
<path d="M0 0 C3.35661695 1.67830848 4.32506861 4.70789347 6 8 C5.67 8.66 5.34 9.32 5 10 C4.01 9.67 3.02 9.34 2 9 C1.26953125 6.93359375 1.26953125 6.93359375 0.8125 4.4375 C0.65394531 3.61121094 0.49539062 2.78492188 0.33203125 1.93359375 C0.16767578 0.97646484 0.16767578 0.97646484 0 0 Z " fill="#1B537D" transform="translate(250,146)"/>
<path d="M0 0 C0.66 0.33 1.32 0.66 2 1 C-0.12055614 4.1808342 -1.63050557 5.31525278 -5 7 C-5.66 6.67 -6.32 6.34 -7 6 C-4.69 4.02 -2.38 2.04 0 0 Z " fill="#1B537D" transform="translate(180,317)"/>
<path d="M0 0 C-1.6875 2.0625 -1.6875 2.0625 -4 4 C-6.75 3.75 -6.75 3.75 -9 3 C-6.40821726 0.40821726 -3.54324677 -1.77162338 0 0 Z " fill="#1B537D" transform="translate(375,275)"/>
<path d="M0 0 C2.51083114 1.25541557 2.87125446 2.50063488 4 5 C3.01 5.99 2.02 6.98 1 8 C1 6.35 1 4.7 1 3 C0.01 2.67 -0.98 2.34 -2 2 C-1.34 1.34 -0.68 0.68 0 0 Z " fill="#1B537D" transform="translate(198,108)"/>
<path d="M0 0 C0.66 0.33 1.32 0.66 2 1 C-1.465 3.97 -1.465 3.97 -5 7 C-5 4 -5 4 -3.625 2.375 C-2 1 -2 1 0 0 Z " fill="#1B537D" transform="translate(194,82)"/>
<path d="M0 0 C0.33 0.66 0.66 1.32 1 2 C0.01 3.32 -0.98 4.64 -2 6 C-3.32 5.67 -4.64 5.34 -6 5 C-4.02 3.35 -2.04 1.7 0 0 Z " fill="#1B537D" transform="translate(263,382)"/>
</g>
</svg>
