<?xml version="1.0" standalone="no"?>
<!DOCTYPE svg PUBLIC "-//W3C//DTD SVG 20010904//EN"
 "http://www.w3.org/TR/2001/REC-SVG-20010904/DTD/svg10.dtd">
<svg version="1.0" xmlns="http://www.w3.org/2000/svg"
 width="635.000000pt" height="393.000000pt" viewBox="0 0 635.000000 393.000000"
 preserveAspectRatio="xMidYMid meet">

<g transform="translate(0.000000,393.000000) scale(0.100000,-0.100000)"
fill="#2B415C" stroke="none">
<path d="M3058 3330 l-98 -108 0 -670 c0 -523 3 -672 13 -680 20 -16 117 -42
159 -42 l38 0 0 805 c0 443 -3 805 -7 804 -5 0 -52 -49 -105 -109z"/>
<path d="M3310 2638 l0 -808 33 0 c33 0 93 14 140 32 l27 10 0 680 0 679 -52
57 c-29 31 -74 79 -100 107 l-48 50 0 -807z"/>
<path d="M2815 3068 c-15 -18 -59 -66 -96 -106 l-69 -74 0 -383 0 -384 70 -70
c39 -38 84 -80 100 -91 l30 -21 0 580 c0 320 -2 581 -4 581 -2 0 -16 -15 -31
-32z"/>
<path d="M3620 2520 c0 -361 4 -580 10 -580 5 0 52 42 105 93 l95 92 0 377 0
378 -97 109 c-54 60 -101 110 -105 110 -5 1 -8 -260 -8 -579z"/>
<path d="M700 2180 l0 -40 840 0 840 0 0 40 0 40 -840 0 -840 0 0 -40z"/>
<path d="M4100 2180 l0 -40 840 0 840 0 0 40 0 40 -840 0 -840 0 0 -40z"/>
<path d="M700 1315 l0 -367 188 4 c191 5 212 9 275 52 95 64 89 247 -10 303
l-35 20 34 21 c45 28 58 59 58 136 0 49 -5 70 -22 96 -53 77 -91 89 -320 97
l-168 6 0 -368z m347 210 c24 -28 30 -74 13 -106 -18 -33 -64 -49 -145 -49
l-75 0 0 88 c0 49 3 92 8 96 4 5 45 6 92 3 76 -5 87 -8 107 -32z m12 -279 c24
-22 36 -83 22 -118 -16 -42 -58 -58 -156 -58 l-85 0 0 101 0 101 99 -4 c78 -3
104 -8 120 -22z"/>
<path d="M2421 1670 c-8 -4 -10 -110 -9 -361 l3 -354 70 0 70 0 3 133 3 133
60 -3 60 -3 67 -130 68 -130 77 -3 c42 -2 77 1 77 5 0 4 -34 71 -75 148 -41
76 -75 142 -74 145 0 3 19 19 41 35 58 42 81 91 81 175 0 53 -5 76 -22 104
-28 44 -77 83 -122 97 -39 12 -361 20 -378 9z m350 -148 c38 -43 40 -108 5
-149 -23 -26 -29 -28 -120 -31 l-96 -4 0 112 0 112 91 -4 c88 -4 93 -6 120
-36z"/>
<path d="M4100 1555 l0 -65 -40 0 -40 0 0 -50 0 -50 40 0 40 0 0 -158 c0 -86
4 -172 10 -191 21 -73 89 -109 181 -96 l49 7 0 53 0 54 -42 3 c-38 3 -43 6
-50 36 -5 17 -7 89 -6 160 l3 127 48 3 47 3 0 49 0 49 -47 3 -48 3 -3 63 -3
62 -69 0 -70 0 0 -65z"/>
<path d="M1436 1480 c-58 -23 -94 -53 -112 -97 -22 -51 -19 -53 54 -53 64 0
68 1 84 30 15 27 22 30 67 30 57 0 81 -22 81 -76 l0 -31 -87 -7 c-145 -12
-211 -58 -221 -156 -8 -89 50 -160 144 -175 51 -8 121 10 151 37 l22 21 7 -27
c6 -25 9 -26 76 -26 l70 0 -6 28 c-4 15 -10 113 -14 217 -8 204 -11 219 -65
258 -68 51 -164 61 -251 27z m174 -334 c0 -49 -3 -57 -29 -75 -35 -25 -97 -28
-123 -4 -24 21 -23 64 2 96 22 27 40 33 108 36 l42 1 0 -54z"/>
<path d="M3182 1487 c-44 -14 -120 -82 -137 -123 -48 -115 -34 -262 32 -335
51 -57 114 -83 198 -84 82 0 149 22 188 63 l27 28 -34 40 -34 39 -24 -22 c-12
-12 -44 -27 -69 -34 -39 -10 -52 -10 -85 3 -41 16 -87 71 -82 97 4 18 12 19
206 20 l132 1 0 61 c0 84 -16 132 -62 184 -59 67 -163 92 -256 62z m129 -113
c27 -14 59 -65 59 -94 0 -6 -39 -10 -105 -10 -93 0 -105 2 -105 18 1 27 24 62
56 83 35 23 56 24 95 3z"/>
<path d="M3682 1487 c-18 -5 -51 -26 -73 -46 -62 -56 -67 -142 -11 -200 27
-28 107 -63 173 -75 114 -21 117 -126 4 -126 -46 0 -82 21 -95 56 -9 22 -15
24 -75 24 -73 0 -75 -2 -46 -67 67 -146 375 -144 430 3 37 100 -30 181 -172
210 -108 23 -142 52 -117 99 26 48 124 44 143 -6 11 -28 13 -29 85 -29 81 0
78 -4 51 67 -11 31 -71 75 -121 90 -51 15 -130 15 -176 0z"/>
<path d="M4530 1480 c-56 -26 -95 -63 -123 -115 -18 -33 -22 -57 -22 -145 0
-90 3 -111 22 -146 54 -102 166 -149 289 -124 51 10 66 19 109 64 79 80 102
177 71 294 -19 70 -70 136 -126 164 -64 32 -161 35 -220 8z m156 -111 c49 -30
72 -110 55 -193 -16 -76 -35 -103 -81 -117 -33 -10 -43 -9 -72 7 -47 28 -68
76 -67 154 1 82 16 125 54 150 38 25 69 25 111 -1z"/>
<path d="M5152 1480 c-18 -11 -35 -27 -38 -35 -10 -25 -24 -17 -24 15 l0 30
-65 0 -65 0 0 -270 0 -270 70 0 70 0 0 179 c0 217 2 222 99 229 l62 4 -3 67
-3 66 -35 3 c-22 1 -47 -5 -68 -18z"/>
<path d="M5453 1482 c-111 -44 -157 -124 -157 -267 0 -77 4 -97 26 -140 73
-142 292 -178 415 -69 l33 29 -36 38 c-36 38 -36 38 -58 19 -53 -48 -141 -51
-195 -7 -30 26 -56 81 -42 89 4 3 68 5 142 5 74 0 149 0 168 1 l34 0 -6 73
c-3 39 -14 93 -25 118 -47 108 -182 158 -299 111z m138 -107 c30 -16 49 -49
49 -86 0 -17 -8 -19 -100 -19 -108 0 -110 2 -90 54 10 28 64 66 93 66 10 0 31
-7 48 -15z"/>
<path d="M1852 1266 l3 -224 31 -39 c55 -68 170 -81 248 -28 l34 23 6 -24 c6
-24 10 -25 69 -22 l62 3 3 268 2 267 -70 0 -70 0 0 -194 0 -195 -25 -20 c-37
-29 -78 -35 -113 -17 -16 8 -32 23 -36 31 -3 9 -6 102 -6 206 l0 189 -71 0
-70 0 3 -224z"/>
</g>
</svg>



