<?xml version="1.0" encoding="UTF-8"?>
<svg version="1.1" xmlns="http://www.w3.org/2000/svg" width="1048" height="648">
<path d="M0 0 C66.8 0 66.8 0 78.59375 11.5625 C84.40466727 17.94311504 86.55567033 23.91780061 86.4375 32.4375 C86.43137695 33.18741211 86.42525391 33.93732422 86.41894531 34.70996094 C86.25611267 40.45419552 85.32323538 44.19977112 82 49 C81.38125 49.9075 80.7625 50.815 80.125 51.75 C77.669848 54.34957271 75.03972014 56.13471719 72 58 C74.24384965 59.72603819 76.37882493 61.20588312 78.875 62.5625 C83.8795044 66.46601343 87.00008175 72.00024524 89 78 C89.89085227 88.96770586 88.92677266 99.43285827 82 108.375 C75.102345 115.47988069 66.42773275 117.90494828 57 120 C38.19 120 19.38 120 0 120 Z " fill="#FFFFFF" transform="translate(115,371)"/>
<path d="M0 0 C0.33 0 0.66 0 1 0 C1 88.77 1 177.54 1 269 C-9.67808497 269 -17.99169868 268.3317179 -27.88671875 264.41796875 C-29.61281372 263.73963989 -29.61281372 263.73963989 -31.3737793 263.04760742 C-32.67375854 262.52904175 -32.67375854 262.52904175 -34 262 C-34.34289243 233.6091469 -34.60800339 205.21855624 -34.76597994 176.82603446 C-34.78473841 173.46686462 -34.80415345 170.10769888 -34.82397461 166.74853516 C-34.82790927 166.0798438 -34.83184392 165.41115244 -34.83589781 164.72219771 C-34.90100058 153.92356624 -35.01917152 143.12614418 -35.15729194 132.32822794 C-35.29804073 121.23148998 -35.37985872 110.13541527 -35.41132742 99.03783083 C-35.43082327 92.81093729 -35.47637388 86.58677749 -35.58595085 80.36076355 C-35.68843827 74.4895163 -35.71904586 68.62210454 -35.69661522 62.75004768 C-35.70071286 60.60540407 -35.73016739 58.46062071 -35.78808212 56.31675529 C-36.05482256 45.92531946 -35.87566898 38.08055939 -28.74973828 30.01897764 C-26.18771642 27.41210921 -23.53348548 24.95624843 -20.76792538 22.56735134 C-18.3603379 20.43290862 -16.29518061 18.11649419 -14.1875 15.6875 C-13.51074219 14.93082031 -12.83398438 14.17414063 -12.13671875 13.39453125 C-11.07904297 12.20923828 -11.07904297 12.20923828 -10 11 C-8.17115738 8.95425597 -6.33705211 6.91337288 -4.5 4.875 C-3.24703125 3.47894531 -3.24703125 3.47894531 -1.96875 2.0546875 C-1.3190625 1.37664062 -0.669375 0.69859375 0 0 Z " fill="#FFFFFF" transform="translate(523,78)"/>
<path d="M0 0 C0.66 0 1.32 0 2 0 C2 63.69 2 127.38 2 193 C-5.87723379 188.49872355 -5.87723379 188.49872355 -8.6484375 185.86328125 C-9.56157715 185.00355713 -9.56157715 185.00355713 -10.49316406 184.12646484 C-11.42467285 183.22855225 -11.42467285 183.22855225 -12.375 182.3125 C-13.35291504 181.3836499 -13.35291504 181.3836499 -14.35058594 180.43603516 C-16.24243843 178.63281928 -18.12347278 176.81914581 -20 175 C-20.94617188 174.08347656 -21.89234375 173.16695312 -22.8671875 172.22265625 C-32.36020959 162.86969514 -32.36020959 162.86969514 -32.42805481 156.76486206 C-32.4466304 155.70521744 -32.46520599 154.64557281 -32.48434448 153.55381775 C-32.4892691 152.39636551 -32.49419373 151.23891327 -32.49926758 150.04638672 C-32.51576859 148.82316208 -32.53226959 147.59993744 -32.54927063 146.33964539 C-32.58979558 142.985878 -32.616351 139.63267242 -32.63349748 136.27874517 C-32.64452929 134.18005999 -32.65881626 132.08142021 -32.67401695 129.98276138 C-32.72040447 123.40681094 -32.75396924 116.83096937 -32.7700327 110.25487411 C-32.78874201 102.68183119 -32.85006186 95.11072756 -32.94853479 87.53831089 C-33.02214007 81.67397297 -33.05692455 75.81018206 -33.06289595 69.94538891 C-33.06732637 66.44776254 -33.08780114 62.95205472 -33.14899635 59.45492172 C-33.21615973 55.54598724 -33.20275885 51.63948533 -33.18286133 47.72998047 C-33.21410095 46.58467361 -33.24534058 45.43936676 -33.27752686 44.25935364 C-33.16432119 37.51937673 -31.94607063 34.26139872 -27.12919617 29.43484497 C-25.42889157 27.94572958 -23.71997378 26.4663528 -22 25 C-20.88997727 23.79488119 -19.79949349 22.5706833 -18.75 21.3125 C-14.57338548 16.41960618 -10.13231615 11.77264147 -5.70996094 7.1027832 C-5.11731445 6.47331787 -4.52466797 5.84385254 -3.9140625 5.1953125 C-3.3773291 4.62828613 -2.8405957 4.06125977 -2.28759766 3.47705078 C-0.90116113 2.01118021 -0.90116113 2.01118021 0 0 Z " fill="#FFFFFF" transform="translate(469,136)"/>
<path d="M0 0 C7.82189055 6.70447761 7.82189055 6.70447761 11.0625 10.4375 C15.64587178 15.63725626 20.36825856 20.69476498 25.12719727 25.73413086 C25.70010498 26.34393799 26.2730127 26.95374512 26.86328125 27.58203125 C27.37157471 28.12061768 27.87986816 28.6592041 28.40356445 29.21411133 C28.93038818 29.80345459 29.45721191 30.39279785 30 31 C31.01846764 31.92471855 31.01846764 31.92471855 32.05751038 32.86811829 C35.04328419 37.68209016 34.63900644 42.33285302 34.67626953 47.89599609 C34.69934174 49.10158173 34.72241394 50.30716736 34.7461853 51.54928589 C34.80298736 54.85177714 34.84120295 58.15325495 34.86661768 61.45606184 C34.88283124 63.52583036 34.90319465 65.59552089 34.92464828 67.66524124 C34.99007907 74.15948751 35.03786511 80.65354163 35.06227601 87.1480726 C35.09069875 94.61039046 35.17813346 102.06889626 35.31727898 109.52995241 C35.42144265 115.31797589 35.47066826 121.10492688 35.47992027 126.8938719 C35.48666777 130.34159896 35.51554571 133.78547265 35.60248184 137.23218918 C36.11542157 160.93163755 36.11542157 160.93163755 29.19709587 169.01813698 C26.85244828 171.37439886 24.4226926 173.51736984 21.80367661 175.56300735 C19.39607724 177.48114643 17.22400051 179.60100108 15.02748299 181.75398827 C10.2818681 186.39311313 5.75397065 189.40376835 0 193 C0 129.31 0 65.62 0 0 Z " fill="#FFFFFF" transform="translate(598,136)"/>
<path d="M0 0 C9.6155455 6.4938654 15.70588069 15.50388743 18.6875 26.625 C19.21228588 30.76910263 19.26123679 34.82713876 19.1875 39 C19.17541504 40.09763672 19.16333008 41.19527344 19.15087891 42.32617188 C18.79972629 56.67022439 14.94647749 67.7894933 4.5 77.9375 C-5.77553922 86.65087954 -19.37339873 87.56338222 -32.3125 86.625 C-43.47052148 84.16883175 -52.17380843 78.22665043 -58.515625 68.77734375 C-66.05456577 55.5514194 -67.45268083 40.81611316 -64.61328125 25.96875 C-63.71607741 23.0310699 -62.65995539 20.38287598 -61.3125 17.625 C-60.88839844 16.74714844 -60.46429687 15.86929687 -60.02734375 14.96484375 C-55.05664778 5.78497905 -47.7484987 -0.81074376 -37.95703125 -4.53125 C-25.30314409 -7.46076728 -11.29064994 -6.59141074 0 0 Z " fill="#FFFFFF" transform="translate(787.3125,406.375)"/>
<path d="M0 0 C0.66 0 1.32 0 2 0 C2 63.69 2 127.38 2 193 C-5.87723379 188.49872355 -5.87723379 188.49872355 -8.6484375 185.86328125 C-9.56157715 185.00355713 -9.56157715 185.00355713 -10.49316406 184.12646484 C-11.42467285 183.22855225 -11.42467285 183.22855225 -12.375 182.3125 C-13.35291504 181.3836499 -13.35291504 181.3836499 -14.35058594 180.43603516 C-16.24243843 178.63281928 -18.12347278 176.81914581 -20 175 C-20.94617188 174.08347656 -21.89234375 173.16695312 -22.8671875 172.22265625 C-32.36020959 162.86969514 -32.36020959 162.86969514 -32.42805481 156.76486206 C-32.4466304 155.70521744 -32.46520599 154.64557281 -32.48434448 153.55381775 C-32.4892691 152.39636551 -32.49419373 151.23891327 -32.49926758 150.04638672 C-32.51576859 148.82316208 -32.53226959 147.59993744 -32.54927063 146.33964539 C-32.58979558 142.985878 -32.616351 139.63267242 -32.63349748 136.27874517 C-32.64452929 134.18005999 -32.65881626 132.08142021 -32.67401695 129.98276138 C-32.72040447 123.40681094 -32.75396924 116.83096937 -32.7700327 110.25487411 C-32.78874201 102.68183119 -32.85006186 95.11072756 -32.94853479 87.53831089 C-33.02214007 81.67397297 -33.05692455 75.81018206 -33.06289595 69.94538891 C-33.06732637 66.44776254 -33.08780114 62.95205472 -33.14899635 59.45492172 C-33.21615973 55.54598724 -33.20275885 51.63948533 -33.18286133 47.72998047 C-33.21410095 46.58467361 -33.24534058 45.43936676 -33.27752686 44.25935364 C-33.16432119 37.51937673 -31.94607063 34.26139872 -27.12919617 29.43484497 C-25.42889157 27.94572958 -23.71997378 26.4663528 -22 25 C-20.88997727 23.79488119 -19.79949349 22.5706833 -18.75 21.3125 C-14.57338548 16.41960618 -10.13231615 11.77264147 -5.70996094 7.1027832 C-5.11731445 6.47331787 -4.52466797 5.84385254 -3.9140625 5.1953125 C-3.3773291 4.62828613 -2.8405957 4.06125977 -2.28759766 3.47705078 C-0.90116113 2.01118021 -0.90116113 2.01118021 0 0 Z " fill="#FFFFFF" transform="translate(545,78)"/>
<path d="M0 0 C66.48101266 0 66.48101266 0 79.1640625 10.8515625 C85.98313585 18.13491319 88.72026074 25.99282549 88.5 35.875 C88.48718994 36.75124023 88.47437988 37.62748047 88.46118164 38.53027344 C88.15442467 48.35013752 85.87582763 56.02548428 79.015625 63.2734375 C75.67478366 66.13516593 71.96406996 68.13032528 68 70 C72.62292204 79.36821554 77.35861368 88.67366282 82.1875 97.9375 C82.68604492 98.895354 83.18458984 99.85320801 83.69824219 100.84008789 C86.40852404 106.02609065 89.1826322 111.15808403 92.1105957 116.22485352 C93 118 93 118 93 120 C84.09 120 75.18 120 66 120 C64.55625 117.091875 63.1125 114.18375 61.625 111.1875 C56.88576252 101.67662945 51.97948759 92.26053276 46.98632812 82.88085938 C45.9652783 80.93378813 44.98322217 78.96644434 44 77 C37.4 76.67 30.8 76.34 24 76 C24 90.52 24 105.04 24 120 C16.08 120 8.16 120 0 120 Z " fill="#FFFFFF" transform="translate(398,371)"/>
<path d="M0 0 C9.08552795 5.72751682 14.83450555 13.13258881 18.31640625 23.3515625 C19.93894284 32.27551377 19.44140625 41.4688072 19.44140625 50.5390625 C0.96140625 50.5390625 -17.51859375 50.5390625 -36.55859375 50.5390625 C-33.44731516 60.5718548 -33.44731516 60.5718548 -26.05859375 66.8515625 C-19.62305854 69.805185 -11.97864597 69.60677652 -5.30859375 67.4140625 C-0.89426461 65.49438575 2.70876477 62.53850655 6.44140625 59.5390625 C10.07140625 63.4990625 13.70140625 67.4590625 17.44140625 71.5390625 C13.92815804 78.56555893 8.01892898 82.87901926 0.78125 85.76171875 C-12.25779309 90.09355443 -26.74927783 90.06011593 -39.35546875 84.25 C-50.57317527 77.89329964 -57.41244072 68.92277398 -60.93359375 56.4140625 C-63.56617028 41.51422212 -62.2527726 25.21313793 -53.55859375 12.5390625 C-41.71066992 -3.91470384 -18.19497611 -9.26572041 0 0 Z " fill="#FFFFFF" transform="translate(934.55859375,404.4609375)"/>
<path d="M0 0 C8.05754026 6.46771169 12.86714263 15.23810179 15.36328125 25.22265625 C15.36328125 32.48265625 15.36328125 39.74265625 15.36328125 47.22265625 C-3.44671875 47.22265625 -22.25671875 47.22265625 -41.63671875 47.22265625 C-37.12587779 58.56589939 -37.12587779 58.56589939 -27.84375 65.48828125 C-20.93308181 67.78776022 -13.62725024 67.10635083 -7.13671875 63.97265625 C-3.71481035 62.01648386 -0.57413776 59.86633336 2.36328125 57.22265625 C6.28824166 61.04839013 10.04507916 64.84262949 13.36328125 69.22265625 C12.24204219 73.98792225 9.60804194 76.03895645 5.77734375 78.734375 C-6.32549588 86.19583438 -20.028134 88.27274364 -33.9921875 85.57421875 C-45.91061768 81.96631104 -54.86677228 74.86538057 -60.8828125 63.96484375 C-67.38739446 50.28854321 -67.50488834 34.48331661 -62.63671875 20.22265625 C-57.63276699 9.17751903 -51.36595148 1.62589754 -40.4296875 -3.890625 C-27.8443029 -8.54126624 -11.07723677 -7.46687812 0 0 Z " fill="#FFFFFF" transform="translate(562.63671875,406.77734375)"/>
<path d="M0 0 C7.92 0 15.84 0 24 0 C24.01458252 1.84674316 24.02916504 3.69348633 24.04418945 5.59619141 C24.095923 11.71113211 24.1612309 17.82581119 24.23571491 23.94051552 C24.28036274 27.64635653 24.31963077 31.35208903 24.34643555 35.05810547 C24.37252489 38.63744733 24.41296603 42.21637036 24.46318626 45.79545212 C24.47981715 47.15807239 24.49135493 48.52076505 24.49761391 49.88347244 C24.50729531 51.79824651 24.53708538 53.71288645 24.56762695 55.62744141 C24.57873001 56.71554108 24.58983307 57.80364075 24.60127258 58.92471313 C25.18765824 63.44736201 26.69084672 66.84486476 30.125 69.875 C34.88810392 71.73882327 39.39703116 71.92028708 44.25390625 70.203125 C47.65056947 68.57673009 50.65415252 67.00104929 53 64 C53.47486576 61.11418383 53.47486576 61.11418383 53.43237305 57.78442383 C53.45216721 56.5033223 53.47196136 55.22222076 53.49235535 53.90229797 C53.49912514 52.50387722 53.50557201 51.10545488 53.51171875 49.70703125 C53.52856354 48.27640739 53.54671351 46.84579836 53.56611633 45.41520691 C53.61364482 41.65219758 53.64343541 37.88924831 53.66955566 34.1260376 C53.69934705 30.28507623 53.74588218 26.44432193 53.79101562 22.60351562 C53.8770812 15.06909529 53.9428639 7.53470543 54 0 C61.59 0 69.18 0 77 0 C77 29.37 77 58.74 77 89 C69.74 89 62.48 89 55 89 C55 86.36 55 83.72 55 81 C54.32517578 81.58007812 54.32517578 81.58007812 53.63671875 82.171875 C45.00885666 89.15715813 36.46728044 91.77156585 25.36328125 91.37109375 C18.02341759 90.56123655 12.86905565 88.30655565 7.625 83.0625 C-0.13008266 73.20158915 -0.57851949 61.5902652 -0.390625 49.51171875 C-0.38314101 48.07299089 -0.37745832 46.63425267 -0.37347412 45.19551086 C-0.35838694 41.45531798 -0.31925785 37.71577186 -0.2746582 33.97583008 C-0.23333416 30.1408767 -0.21538485 26.30581619 -0.1953125 22.47070312 C-0.15274137 14.98014331 -0.08253714 7.49024559 0 0 Z " fill="#FFFFFF" transform="translate(304,402)"/>
<path d="M0 0 C1.44463623 0.01812744 1.44463623 0.01812744 2.91845703 0.03662109 C13.67678235 0.33611893 23.32235169 2.67997385 31.125 10.5 C36.49074478 16.72285499 37.15506035 19.77054312 38.125 28.5 C30.205 28.5 22.285 28.5 14.125 28.5 C13.135 26.19 12.145 23.88 11.125 21.5 C8.76295765 18.972563 7.50895584 18.55443052 4.06640625 18.06640625 C2.95136719 18.06511719 1.83632813 18.06382812 0.6875 18.0625 C-0.42496094 18.04316406 -1.53742187 18.02382813 -2.68359375 18.00390625 C-6.52943878 18.60173039 -8.18412902 19.72503931 -10.875 22.5 C-11.48953775 26.32379043 -11.54327156 28.45400973 -9.4375 31.75 C-4.19020537 35.33351828 1.84504417 36.44318597 7.96655273 37.87890625 C17.29154133 40.08605556 28.50706269 42.80870309 34.2734375 51.1640625 C38.080101 57.50850167 38.86493293 63.20790735 38.125 70.5 C36.28536521 77.71793012 32.2347899 82.39960678 26.125 86.5 C20.03146721 89.92373167 14.17027976 92.31730231 7.125 92.5 C5.32869141 92.5928125 5.32869141 92.5928125 3.49609375 92.6875 C-7.88486488 93.11704782 -18.06238381 91.64978453 -27.12890625 84.12890625 C-32.31289812 79.2928333 -36.29376615 74.57394093 -37.875 67.5 C-37.875 65.85 -37.875 64.2 -37.875 62.5 C-30.285 62.5 -22.695 62.5 -14.875 62.5 C-13.885 65.965 -13.885 65.965 -12.875 69.5 C-8.21721155 73.92489903 -5.39563801 74.65434221 0.9375 74.6875 C2.16082031 74.70167969 3.38414062 74.71585937 4.64453125 74.73046875 C7.95171123 74.51147479 10.1641898 73.92682853 13.125 72.5 C14.42555941 66.62652187 14.42555941 66.62652187 12.75 61.125 C7.84033162 58.08568148 2.4262919 56.82723132 -3.11328125 55.4140625 C-14.77887868 52.39879174 -25.99559396 49.26069256 -32.875 38.5 C-35.88009258 32.21946049 -36.01331691 25.40122202 -34.0703125 18.7421875 C-29.98850462 9.53700697 -22.75352093 4.84451857 -13.61108398 1.31591797 C-9.06988562 -0.0382968 -4.70939961 -0.09506424 0 0 Z " fill="#FFFFFF" transform="translate(621.875,400.5)"/>
<path d="M0 0 C92.07 0 184.14 0 279 0 C279 4.62 279 9.24 279 14 C186.93 14 94.86 14 0 14 C0 9.38 0 4.76 0 0 Z " fill="#FFFFFF" transform="translate(675,282)"/>
<path d="M0 0 C91.74 0 183.48 0 278 0 C278 4.62 278 9.24 278 14 C186.26 14 94.52 14 0 14 C0 9.38 0 4.76 0 0 Z " fill="#FFFFFF" transform="translate(115,282)"/>
<path d="M0 0 C7.92 0 15.84 0 24 0 C24 7.26 24 14.52 24 22 C28.95 22 33.9 22 39 22 C39 27.94 39 33.88 39 40 C34.05 40 29.1 40 24 40 C24.09334542 47.08438611 24.19939643 54.16842275 24.31738281 61.25244141 C24.35573647 63.66384628 24.3905779 66.07530962 24.421875 68.48681641 C24.46738703 71.94715313 24.52540404 75.40708508 24.5859375 78.8671875 C24.59748871 79.95055389 24.60903992 81.03392029 24.62094116 82.15011597 C24.64081085 83.1510025 24.66068054 84.15188904 24.68115234 85.18310547 C24.69447601 86.06690887 24.70779968 86.95071228 24.7215271 87.86129761 C24.80669004 90.2132825 24.80669004 90.2132825 27 92 C30.12196336 92.46486718 30.12196336 92.46486718 33.625 92.625 C35.72875 92.74875 37.8325 92.8725 40 93 C40 98.94 40 104.88 40 111 C29.90240528 113.73833077 19.58198936 114.79099468 10 110 C4.7385478 106.7713816 2.22373548 102.01606265 0.45729065 96.21893311 C-0.083577 93.59445535 -0.11967338 91.17759585 -0.11352539 88.49707031 C-0.11344986 87.39623108 -0.11337433 86.29539185 -0.11329651 85.16119385 C-0.10813522 83.97878113 -0.10297394 82.79636841 -0.09765625 81.578125 C-0.0962413 80.36300232 -0.09482635 79.14787964 -0.09336853 77.89593506 C-0.08776988 74.01393169 -0.0752176 70.13198594 -0.0625 66.25 C-0.05748483 63.61849042 -0.05292195 60.98697993 -0.04882812 58.35546875 C-0.03780088 51.90362362 -0.02053714 45.45182158 0 39 C-4.29 39 -8.58 39 -13 39 C-13 33.39 -13 27.78 -13 22 C-8.71 22 -4.42 22 0 22 C0 14.74 0 7.48 0 0 Z " fill="#FFFFFF" transform="translate(677,380)"/>
<path d="M0 0 C0 7.59 0 15.18 0 23 C-3.7434375 23.12375 -3.7434375 23.12375 -7.5625 23.25 C-13.68124839 23.55854964 -18.09752702 24.0313314 -23 28 C-25.29522619 31.44283928 -25.26778547 32.78894506 -25.31884766 36.84838867 C-25.33871735 38.0494072 -25.35858704 39.25042572 -25.37905884 40.48783875 C-25.39061005 41.78478165 -25.40216125 43.08172455 -25.4140625 44.41796875 C-25.43277377 45.75890801 -25.45234716 47.0998355 -25.4727478 48.44075012 C-25.52407965 51.9670009 -25.56369948 55.49328987 -25.60089111 59.01971436 C-25.64092432 62.61935885 -25.69201974 66.21884439 -25.7421875 69.81835938 C-25.83895914 76.87879598 -25.92233729 83.93932358 -26 91 C-33.92 91 -41.84 91 -50 91 C-50 61.3 -50 31.6 -50 1 C-42.41 1 -34.82 1 -27 1 C-26.67 3.97 -26.34 6.94 -26 10 C-24.700625 8.3603125 -24.700625 8.3603125 -23.375 6.6875 C-17.05436513 -1.28853923 -9.38130069 -0.26550851 0 0 Z " fill="#FFFFFF" transform="translate(868,401)"/>
<path d="M0 0 C7.92 0 15.84 0 24 0 C24 39.6 24 79.2 24 120 C16.08 120 8.16 120 0 120 C0 80.4 0 40.8 0 0 Z " fill="#FFFFFF" transform="translate(115,371)"/>
<path d="M0 0 C7.92 0 15.84 0 24 0 C24 39.6 24 79.2 24 120 C16.08 120 8.16 120 0 120 C0 80.4 0 40.8 0 0 Z " fill="#FFFFFF" transform="translate(398,371)"/>
<path d="M0 0 C17.82 0 35.64 0 54 0 C54 4.29 54 8.58 54 13 C47.07 13 40.14 13 33 13 C33.33 15.31 33.66 17.62 34 20 C38.95 20 43.9 20 49 20 C49 23.63 49 27.26 49 31 C44.05 31 39.1 31 34 31 C34.17820313 32.78878906 34.35640625 34.57757813 34.5390625 36.421875 C34.71984375 38.19234375 34.9006250 39.9628125 35.086914 41.78613281 C35.58463542 46.52408854 35.58463542 46.52408854 40 47 C43.96 47.33 47.92 47.66 52 48 C52 52.29 52 56.58 52 61 C46.27054615 62.38164872 40.55685809 63.20689239 34.6640625 63.22265625 C27.69936709 62.99308396 24.22959181 61.6428099 19.625 56.4375 C17.01990082 52.87600416 16.28694604 49.96011396 16.21875 45.6875 C16.19168701 44.48060303 16.16462402 43.27370605 16.13671875 42.03076172 C16.11740845 40.76109741 16.09809814 39.4914331 16.078125 38.18359375 C16.05111633 36.86133728 16.02410767 35.53908081 15.99621582 34.17797852 C15.93099741 30.78519073 15.87475866 27.39236296 15.8203125 24 C15.76406738 20.45458984 15.76406738 20.45458984 15.70703125 16.8359375 C15.67608887 14.36196289 15.64514648 11.88798828 15.61328125 9.33984375 C15.60017456 8.23256836 15.58706787 7.12529297 15.57357788 5.98486328 C15.55194702 4.01296387 15.55194702 4.01296387 15.52990723 2 C15.52990723 1.34 15.52990723 0.68 15.52990723 0 C10.86990723 0 6.20990723 0 1.38990723 0 C1.05990723 0.99 0.72990723 1.98 0.38990723 3 C-2.41209277 3 -5.21409277 3 -8.09009277 3 C-4.88709277 -1.11 -4.88709277 -1.11 0 0 Z " fill="#FFFFFF" transform="translate(128.61009277343748,371)"/>
<path d="M0 0 C4.19354492 0.04494995 4.19354492 0.04494995 8.47265625 0.09082031 C10.52376302 0.11161621 12.57487082 0.13219823 14.62597656 0.15258789 C18.41734704 0.1918316 22.20867389 0.23531408 26 0.28125 C26 6.22125 26 12.16125 26 18.28125 C20.39 18.28125 14.78 18.28125 9 18.28125 C9 23.59125 9 28.90125 9 34.37625 C14.61 34.37625 20.22 34.37625 26 34.37625 C26 40.31625 26 46.25625 26 52.37625 C20.39 52.37625 14.78 52.37625 9 52.37625 C9 60.96625 9 69.55625 9 78.40625 C15.6 78.40625 22.2 78.40625 29 78.40625 C28.67 84.01625 28.34 89.62625 28 95.40625 C18.43 95.40625 8.86 95.40625 -1 95.40625 C-1 64.05625 -1 32.70625 -1 0.40625 C-0.67 0.40625 -0.34 0.40625 0 0.40625 C0 0.27 0 0.135 0 0 Z " fill="#FFFFFF" transform="translate(115,395.59375)"/>
<path d="M0 0 C7.93237305 0.05981445 7.93237305 0.05981445 16.02734375 0.12109375 C16.02734375 2.44109375 16.02734375 4.76109375 16.02734375 7.15234375 C19.41734375 7.30984375 19.41734375 7.30984375 22.87109375 7.46484375 C23.44007813 7.49207031 24.0090625 7.51929687 24.59375 7.54736328 C36.31877679 8.68629117 36.31877679 8.68629117 44.52734375 20.15234375 C47.15668252 26.77403082 47.4665527 32.46346652 47.02734375 39.52734375 C45.16376067 47.81167671 42.37015371 54.60397605 35.61328125 60.32421875 C26.1660098 67.67012888 17.01420685 66.98458497 5.52734375 66.02734375 C5.52734375 63.70734375 5.52734375 61.38734375 5.52734375 59.00234375 C3.52981628 58.95241883 3.52981628 58.95241883 1.49047852 58.90136719 C-1.4048866 58.81355225 -4.29977626 58.71899068 -7.19531250 58.62109375 C-8.45009766 58.58113281 -9.70488281 58.54117187 -10.99609375 58.50000000 C-11.95898437 58.46681641 -12.92187500 58.43363281 -13.91406250 58.39941406 C-14.77263672 58.36913086 -15.63121094 58.33884766 -16.51562500 58.30761719 C-17.00656250 58.28587891 -17.49750000 58.26414062 -18.00390625 58.24179688 C-17.97265625 38.77679688 -17.97265625 38.77679688 -17.97265625 19.15234375 C-12.03265625 19.15234375 -6.09265625 19.15234375 0.02734375 19.15234375 C0.02734375 12.88234375 0.02734375 6.61234375 0.02734375 0.15234375 C0.01828125 0.10207031 0.0092187 0.05179687 0 0 Z " fill="#FFFFFF" transform="translate(398.97265625,371.84765625)"/>
<path d="M0 0 C7.92 0 15.84 0 24 0 C24 6.27 24 12.54 24 19 C20.29 19.165 16.58 19.33 12.7578125 19.5 C10.40691145 19.67308855 10.40691145 19.67308855 8 20 C8 31.22 8 42.44 8 54 C5.36 54 2.72 54 0 54 C0 36.18 0 18.36 0 0 Z " fill="#FFFFFF" transform="translate(413,371)"/>
<path d="M0 0 C7.26 0 14.52 0 22 0 C22 6.27 22 12.54 22 19 C19.67597656 19.09568359 17.35195312 19.19136719 14.95898438 19.28955078 C12.23375 19.45958333 12.23375 19.45958333 9.45019531 20.20483398 C9.09501221 23.80908406 8.96088135 27.19195389 8.9453125 30.8125 C8.93694824 31.99681152 8.92858398 33.18112305 8.91796875 34.40234375 C8.91463867 35.58989258 8.91130859 36.77744141 8.90795898 38.00097656 C8.90049316 39.18917969 8.89302734 40.37738281 8.88549805 41.60180664 C8.86753987 45.06789629 8.85255124 48.53399381 8.83886719 51.99999967 C8.821808 55.26315145 8.80091918 58.52628203 8.77734375 61.78955078 C8.72755127 68.52640159 8.69119212 75.26312878 8.66333008 82 C8.64976379 85.6234314 8.62968262 89.24674814 8.60546875 92.87011719 C8.58306693 96.29696067 8.56872548 99.72380879 8.55859375 103.15063477 C8.55161133 104.48447159 8.54462891 105.81830841 8.53735352 107.19281006 C8.53273865 108.44755692 8.52812378 109.70230377 8.52336121 110.99583435 C8.51711426 111.90652298 8.51086731 112.8172116 8.50443268 113.75608826 C5.68262891 113.83706478 2.86082895 113.91768685 0.03872314 113.99799395 C-0.48481628 114.01387894 -1.0083557 114.02976394 -1.54757357 114.04614568 C-2.03186401 114.06035461 -2.51615446 114.07456354 -3.01504612 114.08918458 C-3.67149536 114.10825653 -3.67149536 114.10825653 -4.34155273 114.12771606 C-4.89163818 114.08518189 -5.44172363 114.04264771 -6.0078125 113.99902344 C-6.02522949 78.99935059 -6.02522949 78.99935059 -6.04296875 43.12402344 C-6.01558594 42.51386719 -5.98820313 41.90371094 -5.9609375 41.27539063 C-5.98437500 15.45414063 -5.98437500 15.45414063 -3.0078125 8.49902344 C-1.22656250 5.24902344 -1.22656250 5.24902344 0 0 Z " fill="#FFFFFF" transform="translate(130.0078125,377.50097656)"/>
</svg>