<?xml version="1.0" encoding="UTF-8"?>
<svg id="Layer_1" xmlns="http://www.w3.org/2000/svg" version="1.1" viewBox="0 0 88 83">
  <!-- Generator: Adobe Illustrator 30.1.0, SVG Export Plug-In . SVG Version: 2.1.1 Build 136)  -->
  <defs>
    <style>
      .st0 {
        fill: #fff;
      }
    </style>
  </defs>
  <path class="st0" d="M0,83V0h88v83H0ZM18.78,43.4c1.26-4.08,4.07-7.01,7.1-9.52,4.23-3.5,7.5-7.37,10.15-12.37l1.98,3.07c.77,1.19,2.87,1.44,4.02.69.95-.62,1.55-2.54.94-3.65-1.89-3.48-3.16-6.57-4.19-10.37-.34-1.27-1.75-2.31-2.91-2.22-5.16.4-.63,9.58-13.94,20.41-4.08,3.32-7.5,7.38-8.99,12.54-3.07,10.62,1.98,21.59,11.12,26.9,9.33,5.42,21.23,3.85,28.86-3.9,1.17-1.19.86-3.3-.35-4.29-.95-.78-2.87-.83-4.06.28-6.02,5.66-14.7,6.81-21.8,2.56-6.54-3.91-10.42-12.12-7.94-20.14ZM66.37,31.16c4.26-4.6,7.16,1.99,9.21.22.42-.36.87-1.89.59-2.51-.92-2.06-3.72-3.74-6.06-3.76-5.57-.06-6.34,4.48-9.84,4.48-1.1,0-2.77-.85-3.56-1.73-3.25-3.61-8.15-3.61-11.58-.18-.98.98-2.62,1.94-3.91,1.91-2.67-.07-4.46-3.78-5.95-1.54-.29.44-.56,1.94-.28,2.43,1.11,1.93,3.76,3.41,5.81,3.49,2.37.09,4.8-.83,6.45-2.63,2.04-2.24,5.06-2.37,7.08-.12,3.26,3.62,8.56,3.68,12.03-.06ZM47.29,44.67c2.13-2.31,5.14-2.23,7.09-.05,3.21,3.59,8.5,3.64,11.78.08,4.47-4.85,7.34,1.88,9.39.13.41-.35.9-1.87.67-2.42-.85-2.06-3.49-3.65-5.57-3.78-6.11-.37-6.52,4.4-10.4,4.43-1.11,0-2.73-.8-3.52-1.69-3.36-3.77-8.47-3.49-11.85,0-4.3,4.45-6.85-1.36-9.03-.4-.58.26-1.23,1.95-.97,2.56,1.05,2.39,3.68,3.7,5.99,3.83s4.71-.84,6.42-2.69ZM66.31,58.06c4.37-4.67,7.11,1.83,9.2.22.42-.33.94-1.83.7-2.44-.82-2.12-3.69-3.81-6.01-3.92s-4.63.98-6.38,2.79c-2.08,2.15-5.15,2.36-7.12.02-3.11-3.7-8.3-3.69-11.64-.15-1.87,1.99-4.65,2.62-6.79.52-.62-.61-1.68-1.06-2.26-.79-.62.29-1.46,2.05-1.13,2.7,1.1,2.18,3.64,3.66,6.08,3.81,5.36.32,6.29-4.31,9.8-4.45,1.08-.04,2.78.76,3.62,1.67,3.32,3.61,8.5,3.68,11.93.02Z"/>
  <path d="M18.78,43.4c-2.48,8.02,1.4,16.23,7.94,20.14,7.09,4.24,15.78,3.1,21.8-2.56,1.18-1.11,3.11-1.06,4.06-.28,1.21.99,1.52,3.1.35,4.29-7.63,7.75-19.53,9.32-28.86,3.9-9.14-5.31-14.19-16.27-11.12-26.9,1.49-5.16,4.91-9.22,8.99-12.54,13.31-10.84,8.79-20.02,13.94-20.41,1.16-.09,2.57.95,2.91,2.22,1.03,3.81,2.3,6.89,4.19,10.37.6,1.11,0,3.04-.94,3.65-1.15.75-3.25.5-4.02-.69l-1.98-3.07c-2.65,5-5.92,8.87-10.15,12.37-3.03,2.51-5.84,5.44-7.1,9.52Z"/>
  <path d="M66.31,58.06c-3.43,3.67-8.61,3.59-11.93-.02-.83-.91-2.53-1.71-3.62-1.67-3.51.14-4.45,4.77-9.8,4.45-2.43-.14-4.98-1.63-6.08-3.81-.33-.65.51-2.41,1.13-2.7.58-.28,1.64.18,2.26.79,2.14,2.09,4.91,1.46,6.79-.52,3.34-3.54,8.53-3.55,11.64.15,1.97,2.35,5.04,2.13,7.12-.02,1.75-1.81,4.06-2.89,6.38-2.79s5.18,1.79,6.01,3.92c.24.61-.28,2.12-.7,2.44-2.09,1.61-4.84-4.89-9.2-.22Z"/>
  <path d="M66.37,31.16c-3.47,3.74-8.77,3.68-12.03.06-2.02-2.25-5.04-2.12-7.08.12-1.65,1.81-4.09,2.73-6.45,2.63-2.06-.08-4.71-1.56-5.81-3.49-.28-.49-.01-1.99.28-2.43,1.49-2.25,3.28,1.47,5.95,1.54,1.29.03,2.93-.93,3.91-1.91,3.43-3.43,8.33-3.43,11.58.18.79.88,2.46,1.73,3.56,1.73,3.5,0,4.27-4.54,9.84-4.48,2.33.02,5.14,1.7,6.06,3.76.28.62-.17,2.15-.59,2.51-2.06,1.77-4.95-4.82-9.21-.22Z"/>
  <path d="M47.29,44.67c-1.71,1.85-4.21,2.81-6.42,2.69-2.32-.13-4.94-1.43-5.99-3.83-.27-.61.38-2.31.97-2.56,2.18-.96,4.73,4.85,9.03.4,3.38-3.5,8.48-3.77,11.85,0,.79.89,2.42,1.7,3.52,1.69,3.88-.03,4.29-4.8,10.4-4.43,2.07.13,4.71,1.72,5.57,3.78.23.56-.26,2.07-.67,2.42-2.05,1.75-4.92-4.98-9.39-.13-3.28,3.56-8.57,3.51-11.78-.08-1.95-2.18-4.96-2.25-7.09.05Z"/>
</svg>