<?xml version="1.0" encoding="UTF-8"?>
<svg id="Layer_1" xmlns="http://www.w3.org/2000/svg" version="1.1" viewBox="0 0 65.07 63.69">
  <!-- Generator: Adobe Illustrator 30.1.0, SVG Export Plug-In . SVG Version: 2.1.1 Build 136)  -->
  <path d="M7.38,34.55c-2.48,8.02,1.4,16.23,7.94,20.14,7.09,4.24,15.78,3.1,21.8-2.56,1.18-1.11,3.11-1.06,4.06-.28,1.21.99,1.52,3.1.35,4.29-7.63,7.75-19.53,9.32-28.86,3.9C3.52,54.73-1.54,43.76,1.54,33.14c1.49-5.16,4.91-9.22,8.99-12.54C23.84,9.75,19.32.58,24.48.18c1.16-.09,2.57.95,2.91,2.22,1.03,3.81,2.3,6.89,4.19,10.37.6,1.11,0,3.04-.94,3.65-1.15.75-3.25.5-4.02-.69l-1.98-3.07c-2.65,5-5.92,8.87-10.15,12.37-3.03,2.51-5.84,5.44-7.1,9.52Z"/>
  <path d="M54.91,49.21c-3.43,3.67-8.61,3.59-11.93-.02-.83-.91-2.53-1.71-3.62-1.67-3.51.14-4.45,4.77-9.8,4.45-2.43-.14-4.98-1.63-6.08-3.81-.33-.65.51-2.41,1.13-2.7.58-.28,1.64.18,2.26.79,2.14,2.09,4.91,1.46,6.79-.52,3.34-3.54,8.53-3.55,11.64.15,1.97,2.35,5.04,2.13,7.12-.02,1.75-1.81,4.06-2.89,6.38-2.79s5.18,1.79,6.01,3.92c.24.61-.28,2.12-.7,2.44-2.09,1.61-4.84-4.89-9.2-.22Z"/>
  <path d="M54.97,22.31c-3.47,3.74-8.77,3.68-12.03.06-2.02-2.25-5.04-2.12-7.08.12-1.65,1.81-4.09,2.73-6.45,2.63-2.06-.08-4.71-1.56-5.81-3.49-.28-.49-.01-1.99.28-2.43,1.49-2.25,3.28,1.47,5.95,1.54,1.29.03,2.93-.93,3.91-1.91,3.43-3.43,8.33-3.43,11.58.18.79.88,2.46,1.73,3.56,1.73,3.5,0,4.27-4.54,9.84-4.48,2.33.02,5.14,1.7,6.06,3.76.28.62-.17,2.15-.59,2.51-2.06,1.77-4.95-4.82-9.21-.22Z"/>
  <path d="M35.9,35.82c-1.71,1.85-4.21,2.81-6.42,2.69-2.32-.13-4.94-1.43-5.99-3.83-.27-.61.38-2.31.97-2.56,2.18-.96,4.73,4.85,9.03.4,3.38-3.5,8.48-3.77,11.85,0,.79.89,2.42,1.7,3.52,1.69,3.88-.03,4.29-4.8,10.4-4.43,2.07.13,4.71,1.72,5.57,3.78.23.56-.26,2.07-.67,2.42-2.05,1.75-4.92-4.98-9.39-.13-3.28,3.56-8.57,3.51-11.78-.08-1.95-2.18-4.96-2.25-7.09.05Z"/>
</svg>